<?xml version="1.0" encoding="UTF-8" standalone="no"?>
<svg
   inkscape:version="1.2.2 (b0a8486541, 2022-12-01)"
   sodipodi:docname="al_logo.svg"
   viewBox="0 0 275.00001 67.999997"
   height="68"
   width="275"
   xml:space="preserve"
   id="svg355"
   version="1.1"
   xmlns:inkscape="http://www.inkscape.org/namespaces/inkscape"
   xmlns:sodipodi="http://sodipodi.sourceforge.net/DTD/sodipodi-0.dtd"
   xmlns="http://www.w3.org/2000/svg"
   xmlns:svg="http://www.w3.org/2000/svg"
   xmlns:rdf="http://www.w3.org/1999/02/22-rdf-syntax-ns#"
   xmlns:cc="http://creativecommons.org/ns#"
   xmlns:dc="http://purl.org/dc/elements/1.1/"><metadata
     id="metadata361"><rdf:RDF><cc:Work
         rdf:about=""><dc:format>image/svg+xml</dc:format><dc:type
           rdf:resource="http://purl.org/dc/dcmitype/StillImage" /><dc:title /></cc:Work></rdf:RDF></metadata><defs
     id="defs359"><clipPath
       id="clipPath381"
       clipPathUnits="userSpaceOnUse"><path
         inkscape:connector-curvature="0"
         id="path379"
         d="M 0,0 H 284 V 227 H 0 Z" /></clipPath><clipPath
       clipPathUnits="userSpaceOnUse"
       id="clipPath469"><path
         d="M 0,226.772 H 283.465 V 0 H 0 Z"
         id="path467"
         inkscape:connector-curvature="0" /></clipPath></defs><sodipodi:namedview
     inkscape:current-layer="g363"
     inkscape:window-maximized="1"
     inkscape:window-y="0"
     inkscape:window-x="1920"
     inkscape:cy="-6"
     inkscape:cx="61.75"
     inkscape:zoom="2"
     units="px"
     showguides="false"
     showgrid="false"
     id="namedview357"
     inkscape:window-height="1127"
     inkscape:window-width="1920"
     inkscape:pageshadow="2"
     inkscape:pageopacity="0"
     guidetolerance="10"
     gridtolerance="10"
     objecttolerance="10"
     borderopacity="1"
     inkscape:document-rotation="0"
     bordercolor="#666666"
     pagecolor="#ffffff"
     inkscape:showpageshadow="2"
     inkscape:pagecheckerboard="0"
     inkscape:deskcolor="#d1d1d1" /><g
     transform="matrix(1.3333333,0,0,1.3333333,0,6.8924001e-6)"
     inkscape:label="logo_faselunare"
     inkscape:groupmode="layer"
     id="g363"><g
       id="g2214"
       transform="translate(1.3494856)"><path
         id="path3283"
         d="m 17.293271,36.97881 -1.62513,1.625142"
         style="display:inline;fill:#155e75;fill-opacity:1;stroke:#155e75;stroke-width:0.574578;stroke-opacity:1" /><path
         id="path3285"
         d="m 12.99044,29.68923 -2.185927,0.710291"
         style="display:inline;fill:#155e75;fill-opacity:1;stroke:#155e75;stroke-width:0.574578;stroke-opacity:1" /><path
         id="path3287"
         d="M 12.306347,20.997585 10.036306,20.638017"
         style="display:inline;fill:#155e75;fill-opacity:1;stroke:#155e75;stroke-width:0.574578;stroke-opacity:1" /><path
         id="path3289"
         d="m 15.642802,12.942585 -1.85933,-1.350951"
         style="display:inline;fill:#155e75;fill-opacity:1;stroke:#155e75;stroke-width:0.574578;stroke-opacity:1" /><path
         id="path3291"
         d="M 22.272523,7.2803465 21.229074,5.2324357"
         style="display:inline;fill:#155e75;fill-opacity:1;stroke:#155e75;stroke-width:0.574578;stroke-opacity:1" /><path
         id="path3293"
         d="M 30.750177,5.2449629 V 2.9466532"
         style="display:inline;fill:#155e75;fill-opacity:1;stroke:#155e75;stroke-width:0.574578;stroke-opacity:1" /><path
         id="path3295"
         d="M 39.227957,7.2803465 40.271286,5.2324357"
         style="display:inline;fill:#155e75;fill-opacity:1;stroke:#155e75;stroke-width:0.574578;stroke-opacity:1" /><path
         id="path3297"
         d="m 45.858136,12.942585 1.859337,-1.350951"
         style="display:inline;fill:#155e75;fill-opacity:1;stroke:#155e75;stroke-width:0.574578;stroke-opacity:1" /><path
         id="path3299"
         d="m 49.194142,20.997585 2.269583,-0.359568"
         style="display:inline;fill:#155e75;fill-opacity:1;stroke:#155e75;stroke-width:0.574578;stroke-opacity:1" /><path
         id="path3301"
         d="m 48.510388,29.68923 2.185689,0.710291"
         style="display:inline;fill:#155e75;fill-opacity:1;stroke:#155e75;stroke-width:0.574578;stroke-opacity:1" /><path
         id="path3303"
         d="m 44.062778,36.834505 1.625485,1.625141"
         style="display:inline;fill:#155e75;fill-opacity:1;stroke:#155e75;stroke-width:0.574578;stroke-opacity:1" /><path
         id="path3305"
         d="m 16.780814,36.739761 -1.015968,0.932422"
         style="display:inline;fill:#155e75;fill-opacity:1;stroke:#155e75;stroke-width:0.229832;stroke-opacity:1" /><path
         id="path3307"
         d="m 16.244503,36.129785 -1.054922,0.888069"
         style="display:inline;fill:#155e75;fill-opacity:1;stroke:#155e75;stroke-width:0.229832;stroke-opacity:1" /><path
         id="path3309"
         d="m 15.734852,35.49729 -1.091926,0.842105"
         style="display:inline;fill:#155e75;fill-opacity:1;stroke:#155e75;stroke-width:0.229832;stroke-opacity:1" /><path
         id="path3311"
         d="m 15.252784,34.843649 -1.127099,0.794525"
         style="display:inline;fill:#155e75;fill-opacity:1;stroke:#155e75;stroke-width:0.229832;stroke-opacity:1" /><path
         id="path3313"
         d="m 14.799093,34.169901 -1.160068,0.745574"
         style="display:inline;fill:#155e75;fill-opacity:1;stroke:#155e75;stroke-width:0.229832;stroke-opacity:1" /><path
         id="path3315"
         d="m 14.374709,33.477302 -1.190868,0.695247"
         style="display:inline;fill:#155e75;fill-opacity:1;stroke:#155e75;stroke-width:0.229832;stroke-opacity:1" /><path
         id="path3317"
         d="m 13.980439,32.767238 -1.219605,0.643536"
         style="display:inline;fill:#155e75;fill-opacity:1;stroke:#155e75;stroke-width:0.229832;stroke-opacity:1" /><path
         id="path3319"
         d="m 13.616839,32.040973 -1.246025,0.59067"
         style="display:inline;fill:#155e75;fill-opacity:1;stroke:#155e75;stroke-width:0.229832;stroke-opacity:1" /><path
         id="path3321"
         d="m 13.284736,31.299771 -1.270274,0.536767"
         style="display:inline;fill:#155e75;fill-opacity:1;stroke:#155e75;stroke-width:0.229832;stroke-opacity:1" /><path
         id="path3323"
         d="m 12.984693,30.545005 -1.292109,0.481841"
         style="display:inline;fill:#155e75;fill-opacity:1;stroke:#155e75;stroke-width:0.229832;stroke-opacity:1" /><path
         id="path3325"
         d="m 12.482741,29.000425 -1.328537,0.369567"
         style="display:inline;fill:#155e75;fill-opacity:1;stroke:#155e75;stroke-width:0.229832;stroke-opacity:1" /><path
         id="path3327"
         d="m 12.281869,28.213368 -1.343132,0.312337"
         style="display:inline;fill:#155e75;fill-opacity:1;stroke:#155e75;stroke-width:0.229832;stroke-opacity:1" /><path
         id="path3329"
         d="m 12.114896,27.418492 -1.355311,0.254542"
         style="display:inline;fill:#155e75;fill-opacity:1;stroke:#155e75;stroke-width:0.229832;stroke-opacity:1" /><path
         id="path3331"
         d="m 11.982168,26.617193 -1.364962,0.196265"
         style="display:inline;fill:#155e75;fill-opacity:1;stroke:#155e75;stroke-width:0.229832;stroke-opacity:1" /><path
         id="path3333"
         d="M 11.883805,25.810946 10.511713,25.94861"
         style="display:inline;fill:#155e75;fill-opacity:1;stroke:#155e75;stroke-width:0.229832;stroke-opacity:1" /><path
         id="path3335"
         d="m 11.820026,25.001246 -1.376691,0.07872"
         style="display:inline;fill:#155e75;fill-opacity:1;stroke:#155e75;stroke-width:0.229832;stroke-opacity:1" /><path
         id="path3337"
         d="m 11.791067,24.189483 -1.378871,0.01985"
         style="display:inline;fill:#155e75;fill-opacity:1;stroke:#155e75;stroke-width:0.229832;stroke-opacity:1" /><path
         id="path3339"
         d="M 11.796923,23.377261 10.4184,23.337969"
         style="display:inline;fill:#155e75;fill-opacity:1;stroke:#155e75;stroke-width:0.229832;stroke-opacity:1" /><path
         id="path3341"
         d="m 11.83749,22.566074 -1.375537,-0.09837"
         style="display:inline;fill:#155e75;fill-opacity:1;stroke:#155e75;stroke-width:0.229832;stroke-opacity:1" /><path
         id="path3343"
         d="M 11.912762,21.75741 10.542735,21.600197"
         style="display:inline;fill:#155e75;fill-opacity:1;stroke:#155e75;stroke-width:0.229832;stroke-opacity:1" /><path
         id="path3345"
         d="M 12.166837,20.153309 10.815319,19.879457"
         style="display:inline;fill:#155e75;fill-opacity:1;stroke:#155e75;stroke-width:0.229832;stroke-opacity:1" /><path
         id="path3347"
         d="M 12.345072,19.360843 11.006539,19.029428"
         style="display:inline;fill:#155e75;fill-opacity:1;stroke:#155e75;stroke-width:0.229832;stroke-opacity:1" /><path
         id="path3349"
         d="m 12.557206,18.576773 -1.32314,-0.388525"
         style="display:inline;fill:#155e75;fill-opacity:1;stroke:#155e75;stroke-width:0.229832;stroke-opacity:1" /><path
         id="path3351"
         d="M 12.802666,17.80259 11.497343,17.357753"
         style="display:inline;fill:#155e75;fill-opacity:1;stroke:#155e75;stroke-width:0.229832;stroke-opacity:1" /><path
         id="path3353"
         d="M 13.081106,17.039552 11.796007,16.539208"
         style="display:inline;fill:#155e75;fill-opacity:1;stroke:#155e75;stroke-width:0.229832;stroke-opacity:1" /><path
         id="path3355"
         d="m 13.391842,16.289156 -1.262347,-0.55493"
         style="display:inline;fill:#155e75;fill-opacity:1;stroke:#155e75;stroke-width:0.229832;stroke-opacity:1" /><path
         id="path3357"
         d="M 13.734521,15.552776 12.497107,14.944292"
         style="display:inline;fill:#155e75;fill-opacity:1;stroke:#155e75;stroke-width:0.229832;stroke-opacity:1" /><path
         id="path3359"
         d="m 14.10845,14.831677 -1.210289,-0.66088"
         style="display:inline;fill:#155e75;fill-opacity:1;stroke:#155e75;stroke-width:0.229832;stroke-opacity:1" /><path
         id="path3361"
         d="M 14.512954,14.127359 13.331965,13.415224"
         style="display:inline;fill:#155e75;fill-opacity:1;stroke:#155e75;stroke-width:0.229832;stroke-opacity:1" /><path
         id="path3363"
         d="M 14.947108,13.440856 13.797834,12.678852"
         style="display:inline;fill:#155e75;fill-opacity:1;stroke:#155e75;stroke-width:0.229832;stroke-opacity:1" /><path
         id="path3365"
         d="M 15.901707,12.127027 14.821849,11.269409"
         style="display:inline;fill:#155e75;fill-opacity:1;stroke:#155e75;stroke-width:0.229832;stroke-opacity:1" /><path
         id="path3367"
         d="M 16.42044,11.501884 15.37827,10.598876"
         style="display:inline;fill:#155e75;fill-opacity:1;stroke:#155e75;stroke-width:0.229832;stroke-opacity:1" /><path
         id="path3369"
         d="M 16.965254,10.899614 15.962729,9.9527129"
         style="display:inline;fill:#155e75;fill-opacity:1;stroke:#155e75;stroke-width:0.229832;stroke-opacity:1" /><path
         id="path3371"
         d="M 17.53558,10.321124 16.574428,9.3322804"
         style="display:inline;fill:#155e75;fill-opacity:1;stroke:#155e75;stroke-width:0.229832;stroke-opacity:1" /><path
         id="path3373"
         d="M 18.130042,9.767695 17.212208,8.7385123"
         style="display:inline;fill:#155e75;fill-opacity:1;stroke:#155e75;stroke-width:0.229832;stroke-opacity:1" /><path
         id="path3375"
         d="M 18.747597,9.2402285 17.874693,8.1726676"
         style="display:inline;fill:#155e75;fill-opacity:1;stroke:#155e75;stroke-width:0.229832;stroke-opacity:1" /><path
         id="path3377"
         d="M 19.38721,8.7396577 18.560857,7.6356627"
         style="display:inline;fill:#155e75;fill-opacity:1;stroke:#155e75;stroke-width:0.229832;stroke-opacity:1" /><path
         id="path3379"
         d="M 20.047752,8.2668991 19.269428,7.1286581"
         style="display:inline;fill:#155e75;fill-opacity:1;stroke:#155e75;stroke-width:0.229832;stroke-opacity:1" /><path
         id="path3381"
         d="M 20.727943,7.822978 19.999021,6.6523347"
         style="display:inline;fill:#155e75;fill-opacity:1;stroke:#155e75;stroke-width:0.229832;stroke-opacity:1" /><path
         id="path3383"
         d="M 21.426397,7.4084748 20.748269,6.2077264"
         style="display:inline;fill:#155e75;fill-opacity:1;stroke:#155e75;stroke-width:0.229832;stroke-opacity:1" /><path
         id="path3385"
         d="M 22.873515,6.6711757 22.300667,5.4167555"
         style="display:inline;fill:#155e75;fill-opacity:1;stroke:#155e75;stroke-width:0.229832;stroke-opacity:1" /><path
         id="path3387"
         d="M 23.619331,6.3496452 23.100827,5.0718962"
         style="display:inline;fill:#155e75;fill-opacity:1;stroke:#155e75;stroke-width:0.229832;stroke-opacity:1" /><path
         id="path3389"
         d="M 24.378349,6.0603992 23.914891,4.7616297"
         style="display:inline;fill:#155e75;fill-opacity:1;stroke:#155e75;stroke-width:0.229832;stroke-opacity:1" /><path
         id="path3391"
         d="M 25.14896,5.8039069 24.741702,4.4864033"
         style="display:inline;fill:#155e75;fill-opacity:1;stroke:#155e75;stroke-width:0.229832;stroke-opacity:1" /><path
         id="path3393"
         d="M 25.929939,5.5806308 25.579444,4.2469172"
         style="display:inline;fill:#155e75;fill-opacity:1;stroke:#155e75;stroke-width:0.229832;stroke-opacity:1" /><path
         id="path3395"
         d="M 26.719756,5.391016 26.426609,4.0435185"
         style="display:inline;fill:#155e75;fill-opacity:1;stroke:#155e75;stroke-width:0.229832;stroke-opacity:1" /><path
         id="path3397"
         d="M 27.516922,5.2354224 27.281806,3.8766652"
         style="display:inline;fill:#155e75;fill-opacity:1;stroke:#155e75;stroke-width:0.229832;stroke-opacity:1" /><path
         id="path3399"
         d="M 28.320054,5.1140748 28.143337,3.7464665"
         style="display:inline;fill:#155e75;fill-opacity:1;stroke:#155e75;stroke-width:0.229832;stroke-opacity:1" /><path
         id="path3401"
         d="M 29.127566,5.0271956 29.009537,3.6532604"
         style="display:inline;fill:#155e75;fill-opacity:1;stroke:#155e75;stroke-width:0.229832;stroke-opacity:1" /><path
         id="path3403"
         d="M 29.938192,4.9751362 29.879149,3.597418"
         style="display:inline;fill:#155e75;fill-opacity:1;stroke:#155e75;stroke-width:0.229832;stroke-opacity:1" /><path
         id="path3405"
         d="M 31.562295,4.9751362 31.621327,3.597418"
         style="display:inline;fill:#155e75;fill-opacity:1;stroke:#155e75;stroke-width:0.229832;stroke-opacity:1" /><path
         id="path3407"
         d="M 32.372796,5.0271956 32.490803,3.6532604"
         style="display:inline;fill:#155e75;fill-opacity:1;stroke:#155e75;stroke-width:0.229832;stroke-opacity:1" /><path
         id="path3409"
         d="M 33.180409,5.1140748 33.357148,3.7464665"
         style="display:inline;fill:#155e75;fill-opacity:1;stroke:#155e75;stroke-width:0.229832;stroke-opacity:1" /><path
         id="path3411"
         d="M 33.983456,5.2354224 34.21868,3.8766652"
         style="display:inline;fill:#155e75;fill-opacity:1;stroke:#155e75;stroke-width:0.229832;stroke-opacity:1" /><path
         id="path3413"
         d="M 34.780622,5.391016 35.073771,4.0435185"
         style="display:inline;fill:#155e75;fill-opacity:1;stroke:#155e75;stroke-width:0.229832;stroke-opacity:1" /><path
         id="path3415"
         d="m 35.570436,5.5806308 0.3506,-1.3337136"
         style="display:inline;fill:#155e75;fill-opacity:1;stroke:#155e75;stroke-width:0.229832;stroke-opacity:1" /><path
         id="path3417"
         d="M 36.351393,5.8039069 36.758769,4.4864033"
         style="display:inline;fill:#155e75;fill-opacity:1;stroke:#155e75;stroke-width:0.229832;stroke-opacity:1" /><path
         id="path3419"
         d="M 37.122029,6.0603992 37.585478,4.7616297"
         style="display:inline;fill:#155e75;fill-opacity:1;stroke:#155e75;stroke-width:0.229832;stroke-opacity:1" /><path
         id="path3421"
         d="m 37.881029,6.3496452 0.518613,-1.277749"
         style="display:inline;fill:#155e75;fill-opacity:1;stroke:#155e75;stroke-width:0.229832;stroke-opacity:1" /><path
         id="path3423"
         d="M 38.626952,6.6711757 39.199813,5.4167555"
         style="display:inline;fill:#155e75;fill-opacity:1;stroke:#155e75;stroke-width:0.229832;stroke-opacity:1" /><path
         id="path3425"
         d="M 40.073981,7.4084748 40.752093,6.2077264"
         style="display:inline;fill:#155e75;fill-opacity:1;stroke:#155e75;stroke-width:0.229832;stroke-opacity:1" /><path
         id="path3427"
         d="M 40.772547,7.822978 41.501459,6.6523347"
         style="display:inline;fill:#155e75;fill-opacity:1;stroke:#155e75;stroke-width:0.229832;stroke-opacity:1" /><path
         id="path3429"
         d="m 41.452608,8.2668991 0.778435,-1.138241"
         style="display:inline;fill:#155e75;fill-opacity:1;stroke:#155e75;stroke-width:0.229832;stroke-opacity:1" /><path
         id="path3431"
         d="m 42.113158,8.7396577 0.826354,-1.103995"
         style="display:inline;fill:#155e75;fill-opacity:1;stroke:#155e75;stroke-width:0.229832;stroke-opacity:1" /><path
         id="path3433"
         d="M 42.752772,9.2402285 43.625676,8.1726676"
         style="display:inline;fill:#155e75;fill-opacity:1;stroke:#155e75;stroke-width:0.229832;stroke-opacity:1" /><path
         id="path3435"
         d="M 43.370445,9.767695 44.288264,8.7385123"
         style="display:inline;fill:#155e75;fill-opacity:1;stroke:#155e75;stroke-width:0.229832;stroke-opacity:1" /><path
         id="path3437"
         d="M 43.9649,10.321124 44.92594,9.3322804"
         style="display:inline;fill:#155e75;fill-opacity:1;stroke:#155e75;stroke-width:0.229832;stroke-opacity:1" /><path
         id="path3439"
         d="M 44.535109,10.899614 45.537516,9.9527129"
         style="display:inline;fill:#155e75;fill-opacity:1;stroke:#155e75;stroke-width:0.229832;stroke-opacity:1" /><path
         id="path3441"
         d="m 45.080033,11.501884 1.042414,-0.903008"
         style="display:inline;fill:#155e75;fill-opacity:1;stroke:#155e75;stroke-width:0.229832;stroke-opacity:1" /><path
         id="path3443"
         d="m 45.598426,12.127027 1.080208,-0.857618"
         style="display:inline;fill:#155e75;fill-opacity:1;stroke:#155e75;stroke-width:0.229832;stroke-opacity:1" /><path
         id="path3445"
         d="m 46.553381,13.440856 1.149156,-0.762004"
         style="display:inline;fill:#155e75;fill-opacity:1;stroke:#155e75;stroke-width:0.229832;stroke-opacity:1" /><path
         id="path3447"
         d="m 46.987747,14.127359 1.180198,-0.712135"
         style="display:inline;fill:#155e75;fill-opacity:1;stroke:#155e75;stroke-width:0.229832;stroke-opacity:1" /><path
         id="path3449"
         d="m 47.392253,14.831677 1.210058,-0.66088"
         style="display:inline;fill:#155e75;fill-opacity:1;stroke:#155e75;stroke-width:0.229832;stroke-opacity:1" /><path
         id="path3451"
         d="m 47.765738,15.552776 1.237641,-0.608484"
         style="display:inline;fill:#155e75;fill-opacity:1;stroke:#155e75;stroke-width:0.229832;stroke-opacity:1" /><path
         id="path3453"
         d="m 48.108189,16.289156 1.262916,-0.55493"
         style="display:inline;fill:#155e75;fill-opacity:1;stroke:#155e75;stroke-width:0.229832;stroke-opacity:1" /><path
         id="path3455"
         d="m 48.419594,17.039552 1.284759,-0.500344"
         style="display:inline;fill:#155e75;fill-opacity:1;stroke:#155e75;stroke-width:0.229832;stroke-opacity:1" /><path
         id="path3457"
         d="m 48.697688,17.80259 1.305443,-0.444837"
         style="display:inline;fill:#155e75;fill-opacity:1;stroke:#155e75;stroke-width:0.229832;stroke-opacity:1" /><path
         id="path3459"
         d="m 48.943607,18.576773 1.322679,-0.388525"
         style="display:inline;fill:#155e75;fill-opacity:1;stroke:#155e75;stroke-width:0.229832;stroke-opacity:1" /><path
         id="path3461"
         d="m 49.155068,19.360843 1.338761,-0.331415"
         style="display:inline;fill:#155e75;fill-opacity:1;stroke:#155e75;stroke-width:0.229832;stroke-opacity:1" /><path
         id="path3463"
         d="m 49.333185,20.153309 1.351409,-0.273852"
         style="display:inline;fill:#155e75;fill-opacity:1;stroke:#155e75;stroke-width:0.229832;stroke-opacity:1" /><path
         id="path3465"
         d="m 49.58714,21.75741 1.370955,-0.157213"
         style="display:inline;fill:#155e75;fill-opacity:1;stroke:#155e75;stroke-width:0.229832;stroke-opacity:1" /><path
         id="path3467"
         d="m 49.66298,22.566074 1.375536,-0.09837"
         style="display:inline;fill:#155e75;fill-opacity:1;stroke:#155e75;stroke-width:0.229832;stroke-opacity:1" /><path
         id="path3469"
         d="M 49.703199,23.377261 51.0822,23.33797"
         style="display:inline;fill:#155e75;fill-opacity:1;stroke:#155e75;stroke-width:0.229832;stroke-opacity:1" /><path
         id="path3471"
         d="m 49.708963,24.189483 1.378984,0.01985"
         style="display:inline;fill:#155e75;fill-opacity:1;stroke:#155e75;stroke-width:0.229832;stroke-opacity:1" /><path
         id="path3473"
         d="m 49.680232,25.001246 1.376675,0.07872"
         style="display:inline;fill:#155e75;fill-opacity:1;stroke:#155e75;stroke-width:0.229832;stroke-opacity:1" /><path
         id="path3475"
         d="M 49.617031,25.810946 50.98912,25.94861"
         style="display:inline;fill:#155e75;fill-opacity:1;stroke:#155e75;stroke-width:0.229832;stroke-opacity:1" /><path
         id="path3477"
         d="M 49.518185,26.617193 50.8834,26.813458"
         style="display:inline;fill:#155e75;fill-opacity:1;stroke:#155e75;stroke-width:0.229832;stroke-opacity:1" /><path
         id="path3479"
         d="m 49.386049,27.418492 1.354854,0.254542"
         style="display:inline;fill:#155e75;fill-opacity:1;stroke:#155e75;stroke-width:0.229832;stroke-opacity:1" /><path
         id="path3481"
         d="m 49.218262,28.213368 1.343372,0.312337"
         style="display:inline;fill:#155e75;fill-opacity:1;stroke:#155e75;stroke-width:0.229832;stroke-opacity:1" /><path
         id="path3483"
         d="m 49.017172,29.000425 1.329553,0.369567"
         style="display:inline;fill:#155e75;fill-opacity:1;stroke:#155e75;stroke-width:0.229832;stroke-opacity:1" /><path
         id="path3485"
         d="m 48.516134,30.545005 1.291644,0.481841"
         style="display:inline;fill:#155e75;fill-opacity:1;stroke:#155e75;stroke-width:0.229832;stroke-opacity:1" /><path
         id="path3487"
         d="m 48.216202,31.299771 1.269808,0.536767"
         style="display:inline;fill:#155e75;fill-opacity:1;stroke:#155e75;stroke-width:0.229832;stroke-opacity:1" /><path
         id="path3489"
         d="m 47.88409,32.040973 1.245687,0.59067"
         style="display:inline;fill:#155e75;fill-opacity:1;stroke:#155e75;stroke-width:0.229832;stroke-opacity:1" /><path
         id="path3491"
         d="m 47.519818,32.767238 1.219243,0.643536"
         style="display:inline;fill:#155e75;fill-opacity:1;stroke:#155e75;stroke-width:0.229832;stroke-opacity:1" /><path
         id="path3493"
         d="m 47.125642,33.477302 1.19053,0.695247"
         style="display:inline;fill:#155e75;fill-opacity:1;stroke:#155e75;stroke-width:0.229832;stroke-opacity:1" /><path
         id="path3495"
         d="m 46.701607,34.169901 1.159509,0.745574"
         style="display:inline;fill:#155e75;fill-opacity:1;stroke:#155e75;stroke-width:0.229832;stroke-opacity:1" /><path
         id="path3497"
         d="m 46.247705,34.843649 1.127319,0.794525"
         style="display:inline;fill:#155e75;fill-opacity:1;stroke:#155e75;stroke-width:0.229832;stroke-opacity:1" /><path
         id="path3499"
         d="m 45.765044,35.49729 1.092851,0.842105"
         style="display:inline;fill:#155e75;fill-opacity:1;stroke:#155e75;stroke-width:0.229832;stroke-opacity:1" /><path
         id="path3501"
         d="m 45.255864,36.129785 1.055027,0.888069"
         style="display:inline;fill:#155e75;fill-opacity:1;stroke:#155e75;stroke-width:0.229832;stroke-opacity:1" /><path
         id="path3503"
         d="m 44.719672,36.739761 1.015504,0.932422"
         style="display:inline;fill:#155e75;fill-opacity:1;stroke:#155e75;stroke-width:0.229832;stroke-opacity:1" /><path
         id="path3505"
         d="m 17.342708,37.326264 a 18.961071,18.961071 0 0 1 0,-26.814995 18.961071,18.961071 0 0 1 26.815002,0 18.961071,18.961071 0 0 1 0,26.814995"
         style="display:inline;fill:none;fill-opacity:1;stroke:#155e75;stroke-width:0.574578;stroke-opacity:1" /><path
         id="path3507"
         d="M 20.813321,38.908529 A 17.984288,17.984288 0 0 1 13.530819,18.729625 17.984288,17.984288 0 0 1 30.750207,5.9344765 17.984288,17.984288 0 0 1 47.969598,18.729625 17.984288,17.984288 0 0 1 40.687088,38.908529"
         style="display:inline;fill:none;fill-opacity:1;stroke:#155e75;stroke-width:0.574578;stroke-opacity:1" /><g
         id="g3515"
         style="display:inline;fill:none;fill-opacity:1;stroke:#155e75;stroke-opacity:1"
         transform="matrix(1.436883,-0.00734843,0.00734843,1.436883,-208.03009,-185.81907)"><path
           id="circle3511"
           d="m 174.95057,146.69733 a 9.5215731,9.5215731 0 0 1 -9.52157,9.52157 9.5215731,9.5215731 0 0 1 -9.52157,-9.52157 9.5215731,9.5215731 0 0 1 9.52157,-9.52158 9.5215731,9.5215731 0 0 1 9.52157,9.52158 z"
           style="fill:none;fill-opacity:1;stroke:#155e75;stroke-width:0.956854;stroke-opacity:1" /><path
           id="path3513"
           d="m 165.429,146.69734 -6.73277,6.73277"
           style="fill:none;fill-opacity:1;stroke:#155e75;stroke-width:1;stroke-linecap:butt;stroke-linejoin:miter;stroke-dasharray:none;stroke-opacity:1" /></g><path
         id="path3527"
         d="m 30.81508,46.402656 c -0.579053,0.840017 -1.090885,1.259839 -1.534678,1.259839 -0.733712,0 -1.100528,-0.627385 -1.100528,-1.882343 0,-0.656306 0.154202,-1.288759 0.463323,-1.896892 0.366665,-0.743323 0.849184,-1.114982 1.448058,-1.114982 0.453658,0 0.83006,0.21254 1.129239,0.637099 0.231811,0.357277 0.347689,0.786789 0.347689,1.288736 0,0.376308 -0.251206,0.946239 -0.753103,1.708543 z m 3.446279,0 c -0.212518,0.318646 -0.453659,0.477872 -0.723791,0.477872 -0.270586,0 -0.535781,-0.139868 -0.796409,-0.419997 -0.10627,-0.115651 -0.19548,-0.243673 -0.268112,-0.383721 -0.07215,-0.139868 -0.12776,-0.282321 -0.16631,-0.426943 l 1.665162,-3.533248 h -1.288854 l -0.825293,2.128562 c -0.115891,-1.515551 -0.772483,-2.273208 -1.969359,-2.273208 -0.868589,0 -1.544566,0.37166 -2.027109,1.11476 -0.434286,0.646789 -0.651659,1.419019 -0.651659,2.316891 0,0.695182 0.202897,1.298479 0.608333,1.809911 0.443802,0.560025 1.003869,0.839803 1.67945,0.839803 0.608342,0 1.134203,-0.202657 1.578399,-0.608143 0.347667,-0.327938 0.68546,-0.810656 1.013756,-1.447986 0.08674,0.30916 0.161379,0.567442 0.224391,0.774775 0.06274,0.207588 0.123069,0.369116 0.181145,0.485073 0.241192,0.531055 0.540301,0.796281 0.897695,0.796281 0.299155,0 0.52602,-0.159154 0.680673,-0.477857 0.144821,-0.26057 0.216991,-0.550084 0.216991,-0.868761 0,-0.05784 -0.0016,-0.113426 -0.0072,-0.166551 -0.0048,-0.05311 -0.01221,-0.09885 -0.02221,-0.137402"
         style="fill:#155e75;fill-opacity:1;fill-rule:nonzero;stroke:none;stroke-width:0.0211167" /></g><text
       xml:space="preserve"
       style="font-size:16.4757px;line-height:46.9624px;font-family:'Caviar Dreams';-inkscape-font-specification:'Caviar Dreams';fill:#155e75;fill-opacity:1;stroke-width:1.66795"
       x="62.387569"
       y="30.745857"
       id="text1996"><tspan
         sodipodi:role="line"
         id="tspan1994"
         style="font-style:normal;font-variant:normal;font-weight:bold;font-stretch:normal;font-size:16.4757px;font-family:'Caviar Dreams';-inkscape-font-specification:'Caviar Dreams Bold';fill:#155e75;fill-opacity:1;stroke-width:1.66796"
         x="62.387569"
         y="30.745857">ALPHALAB.AUDIO </tspan></text></g></svg>
