<?xml version="1.0" encoding="UTF-8" standalone="no"?>
<svg
   xmlns:dc="http://purl.org/dc/elements/1.1/"
   xmlns:cc="http://creativecommons.org/ns#"
   xmlns:rdf="http://www.w3.org/1999/02/22-rdf-syntax-ns#"
   xmlns:svg="http://www.w3.org/2000/svg"
   xmlns="http://www.w3.org/2000/svg"
   xmlns:sodipodi="http://sodipodi.sourceforge.net/DTD/sodipodi-0.dtd"
   xmlns:inkscape="http://www.inkscape.org/namespaces/inkscape"
   inkscape:version="1.0 (4035a4f, 2020-05-01)"
   sodipodi:docname="fl_logo.svg"
   viewBox="0 0 275.00001 67.999997"
   height="68"
   width="275"
   xml:space="preserve"
   id="svg355"
   version="1.1"><metadata
     id="metadata361"><rdf:RDF><cc:Work
         rdf:about=""><dc:format>image/svg+xml</dc:format><dc:type
           rdf:resource="http://purl.org/dc/dcmitype/StillImage" /><dc:title></dc:title></cc:Work></rdf:RDF></metadata><defs
     id="defs359"><clipPath
       id="clipPath381"
       clipPathUnits="userSpaceOnUse"><path
         inkscape:connector-curvature="0"
         id="path379"
         d="M 0,0 H 284 V 227 H 0 Z" /></clipPath><clipPath
       clipPathUnits="userSpaceOnUse"
       id="clipPath469"><path
         d="M 0,226.772 H 283.465 V 0 H 0 Z"
         id="path467"
         inkscape:connector-curvature="0" /></clipPath></defs><sodipodi:namedview
     inkscape:current-layer="g363"
     inkscape:window-maximized="1"
     inkscape:window-y="23"
     inkscape:window-x="1280"
     inkscape:cy="44.935198"
     inkscape:cx="99.40586"
     inkscape:zoom="1"
     units="px"
     showguides="false"
     showgrid="false"
     id="namedview357"
     inkscape:window-height="1035"
     inkscape:window-width="1920"
     inkscape:pageshadow="2"
     inkscape:pageopacity="0"
     guidetolerance="10"
     gridtolerance="10"
     objecttolerance="10"
     borderopacity="1"
     inkscape:document-rotation="0"
     bordercolor="#666666"
     pagecolor="#ffffff" /><g
     transform="matrix(1.3333333,0,0,1.3333333,0,6.8924001e-6)"
     inkscape:label="logo_faselunare"
     inkscape:groupmode="layer"
     id="g363"><g
       transform="matrix(1.2338476,0,0,1.2273591,-13.20747,-0.14575303)"
       id="g200"><g
         id="g503"
         transform="matrix(0.25610972,0,0,-0.25610972,19.575183,21.51736)"><path
           d="m 0,0 c 0,-22.853 14.706,-42.326 35.147,-49.481 -14.788,8.576 -24.762,24.572 -24.762,42.863 0,27.309 22.217,49.527 49.525,49.527 16.104,0 30.432,-7.729 39.483,-19.668 C 90.581,41.058 72.483,52.419 52.417,52.419 23.515,52.419 0,28.904 0,0"
           style="fill:#e4e38d;fill-opacity:1;fill-rule:nonzero;stroke:none"
           id="path505"
           inkscape:connector-curvature="0" /></g><g
         id="g507"
         transform="matrix(0.25610972,0,0,-0.25610972,38.112865,22.447884)"><path
           d="m 0,0 c 11.381,0 20.938,-7.847 23.618,-18.406 0.007,0.233 0.036,0.461 0.036,0.696 0,14.501 -11.797,26.297 -26.297,26.297 -14.5,0 -26.296,-11.796 -26.296,-26.297 0,-7.18 2.898,-13.692 7.58,-18.442 -1.93,3.49 -3.035,7.496 -3.035,11.759 C -24.394,-10.943 -13.451,0 0,0"
           style="fill:#e4e38d;fill-opacity:1;fill-rule:nonzero;stroke:none"
           id="path509"
           inkscape:connector-curvature="0" /></g><g
         id="g511"
         transform="matrix(0.25610972,0,0,-0.25610972,26.116481,25.240709)"><path
           d="m 0,0 c 0,22.071 17.956,40.027 40.027,40.027 17.108,0 31.736,-10.791 37.453,-25.921 -3.013,21.098 -21.193,37.372 -43.111,37.372 -24.017,0 -43.557,-19.54 -43.557,-43.558 0,-16.882 9.66,-31.541 23.736,-38.767 C 5.668,-23.5 0,-12.399 0,0"
           style="fill:#e4e38d;fill-opacity:1;fill-rule:nonzero;stroke:none"
           id="path513"
           inkscape:connector-curvature="0" /></g><g
         id="g515"
         transform="matrix(0.25610972,0,0,-0.25610972,38.53432,26.025532)"><path
           d="m 0,0 c 7.895,0 14.561,-5.311 16.646,-12.543 0.082,0.696 0.132,1.401 0.132,2.119 C 16.778,-0.264 8.515,8 -1.646,8 -11.805,8 -20.07,-0.264 -20.07,-10.424 c 0,-3.738 1.125,-7.214 3.045,-10.121 -0.196,1.042 -0.31,2.112 -0.31,3.21 C -17.335,-7.777 -9.558,0 0,0"
           style="fill:#e4e38d;fill-opacity:1;fill-rule:nonzero;stroke:none"
           id="path517"
           inkscape:connector-curvature="0" /></g><g
         id="g519"
         transform="matrix(0.25610972,0,0,-0.25610972,30.910804,32.035223)"><path
           d="m 0,0 c -4.237,5.461 -6.787,12.293 -6.787,19.725 0,17.791 14.474,32.265 32.266,32.265 12.911,0 24.043,-7.641 29.197,-18.623 C 51.502,48.881 37.747,60.588 21.308,60.588 2.527,60.588 -12.751,45.31 -12.751,26.53 -12.751,15.812 -7.764,6.248 0,0"
           style="fill:#e4e38d;fill-opacity:1;fill-rule:nonzero;stroke:none"
           id="path521"
           inkscape:connector-curvature="0" /></g><g
         id="g523"
         transform="matrix(0.25610972,0,0,-0.25610972,32.999686,36.470634)"><path
           d="m 0,0 c -32.193,0 -58.386,26.192 -58.386,58.386 0,32.195 26.193,58.388 58.386,58.388 10.253,0 20.048,-2.663 28.596,-7.459 -10.979,9.19 -25.117,14.729 -40.555,14.729 -34.92,0 -63.228,-28.308 -63.228,-63.228 0,-34.92 28.308,-63.228 63.228,-63.228 6.572,0 12.91,1.004 18.869,2.865 C 4.624,0.184 2.323,0 0,0"
           style="fill:#e4e38d;fill-opacity:1;fill-rule:nonzero;stroke:none"
           id="path525"
           inkscape:connector-curvature="0" /></g><g
         id="g527"
         transform="matrix(0.25610972,0,0,-0.25610972,41.340002,31.230398)"><path
           d="m 0,0 c 0.261,0.953 0.412,1.952 0.412,2.987 0,6.268 -5.099,11.367 -11.367,11.367 -6.267,0 -11.366,-5.099 -11.366,-11.367 0,-4.786 2.977,-8.882 7.173,-10.554 -0.85,1.326 -1.359,2.893 -1.359,4.583 0,4.707 3.829,8.537 8.536,8.537 C -4.316,5.553 -1.216,3.234 0,0"
           style="fill:#e4e38d;fill-opacity:1;fill-rule:nonzero;stroke:none"
           id="path529"
           inkscape:connector-curvature="0" /></g><g
         id="g531"
         transform="matrix(0.25610972,0,0,-0.25610972,38.641092,31.994707)"><path
           d="m 0,0 c 0,-1.416 1.151,-2.568 2.567,-2.568 1.418,0 2.571,1.152 2.571,2.568 0,1.417 -1.153,2.569 -2.571,2.569 C 1.151,2.569 0,1.417 0,0"
           style="fill:#e4e38d;fill-opacity:1;fill-rule:nonzero;stroke:none"
           id="path533"
           inkscape:connector-curvature="0" /></g></g><g
       transform="matrix(2.3194263,0,0,2.3194263,63.334429,-93.064308)"
       id="g220"><g
         id="g471"
         transform="matrix(0.25610972,0,0,-0.25610972,13.634897,50.729235)"><path
           d="m 0,0 c -2.247,0.749 -4.021,1.773 -5.322,3.075 -1.302,1.301 -1.953,2.878 -1.953,4.731 0,1.813 0.651,3.376 1.953,4.681 1.301,1.308 2.878,1.963 4.73,1.963 1.84,0 3.417,-0.651 4.732,-1.952 0.721,-0.696 1.222,-1.477 1.498,-2.346 L 4.042,9.521 c -0.236,0.644 -0.624,1.235 -1.164,1.775 -0.958,0.946 -2.117,1.42 -3.47,1.42 -1.352,0 -2.511,-0.477 -3.469,-1.43 -0.959,-0.953 -1.438,-2.112 -1.438,-3.48 0,-1.353 0.479,-2.509 1.438,-3.469 0.893,-0.88 2.129,-1.689 3.707,-2.424 C 2.168,1.097 4.29,-0.17 6.014,-1.893 7.839,-3.706 8.753,-5.9 8.753,-8.477 c 0,-2.588 -0.914,-4.796 -2.739,-6.624 -1.828,-1.825 -4.029,-2.739 -6.606,-2.739 -2.576,0 -4.777,0.919 -6.604,2.76 -1.457,1.459 -2.331,3.154 -2.621,5.086 l 1.674,0.61 c 0.186,-1.707 0.916,-3.2 2.19,-4.473 1.486,-1.487 3.272,-2.229 5.361,-2.229 2.104,0 3.897,0.742 5.381,2.229 1.486,1.484 2.229,3.279 2.229,5.38 0,2.089 -0.743,3.877 -2.229,5.362 C 3.49,-1.813 1.893,-0.775 0,0"
           style="fill:#e4e38d;fill-opacity:1;fill-rule:nonzero;stroke:none"
           id="path473"
           inkscape:connector-curvature="0" /></g><g
         id="g475"
         transform="matrix(0.25610972,0,0,-0.25610972,21.183373,47.124439)"><path
           d="M 0,0 V -1.774 H -13.995 V -14.883 H 0 v -1.774 h -13.995 v -13.11 H 0 v -1.774 H -15.771 V 0 Z"
           style="fill:#e4e38d;fill-opacity:1;fill-rule:nonzero;stroke:none"
           id="path477"
           inkscape:connector-curvature="0" /></g><g
         id="g479"
         transform="matrix(0.25610972,0,0,-0.25610972,22.830337,55.202396)"><path
           d="M 0,0 V 31.541 H 4.08 V 4.101 H 15.355 V 0 Z"
           style="fill:#e4e38d;fill-opacity:1;fill-rule:nonzero;stroke:none"
           id="path481"
           inkscape:connector-curvature="0" /></g><g
         id="g483"
         transform="matrix(0.25610972,0,0,-0.25610972,32.33941,47.124439)"><path
           d="m 0,0 h 4.101 v -22.216 c -0.357,-2.537 -1.403,-4.68 -3.137,-6.427 -2.102,-2.103 -4.632,-3.154 -7.587,-3.154 -2.959,0 -5.485,1.048 -7.58,3.145 -2.099,2.095 -3.144,4.623 -3.144,7.58 V 0 h 4.1 v -21.072 c 0,-1.815 0.648,-3.369 1.94,-4.663 1.296,-1.294 2.857,-1.943 4.684,-1.943 1.837,0 3.404,0.645 4.689,1.933 C -0.645,-24.456 0,-22.9 0,-21.072 Z"
           style="fill:#e4e38d;fill-opacity:1;fill-rule:nonzero;stroke:none"
           id="path485"
           inkscape:connector-curvature="0" /></g><g
         id="g487"
         transform="matrix(0.25610972,0,0,-0.25610972,35.162353,47.124439)"><path
           d="m 0,0 h 3.727 l 13.01,-22.513 V 0 h 4.1 V -31.541 H 17.269 L 4.083,-8.753 V -31.541 H 0 Z"
           style="fill:#e4e38d;fill-opacity:1;fill-rule:nonzero;stroke:none"
           id="path489"
           inkscape:connector-curvature="0" /></g><g
         id="g491"
         transform="matrix(0.25610972,0,0,-0.25610972,45.680114,51.299489)"><path
           d="M 0,0 -2.701,7.391 -5.382,0 Z M -1.598,16.302 9.877,-15.239 H 5.54 L 1.478,-4.082 H -6.88 l -4.042,-11.157 h -4.354 l 11.471,31.541 z"
           style="fill:#e4e38d;fill-opacity:1;fill-rule:nonzero;stroke:none"
           id="path493"
           inkscape:connector-curvature="0" /></g><g
         id="g495"
         transform="matrix(0.25610972,0,0,-0.25610972,50.522431,48.174643)"><path
           d="m 0,0 v -13.247 h 3.727 c 1.813,0 3.367,0.647 4.663,1.942 1.292,1.294 1.94,2.861 1.94,4.701 0,1.827 -0.648,3.384 -1.94,4.672 C 7.094,-0.643 5.54,0 3.727,0 Z M 3.727,-17.348 H 0 V -27.44 H -4.079 V 4.101 h 8.947 c 2.537,-0.342 4.68,-1.388 6.429,-3.134 2.088,-2.104 3.133,-4.627 3.133,-7.571 0,-2.97 -1.045,-5.506 -3.133,-7.608 -1.447,-1.447 -2.551,-2.262 -3.313,-2.444 l 6.998,-10.784 h -4.947 z"
           style="fill:#e4e38d;fill-opacity:1;fill-rule:nonzero;stroke:none"
           id="path497"
           inkscape:connector-curvature="0" /></g><g
         id="g499"
         transform="matrix(0.25610972,0,0,-0.25610972,60.000002,47.124439)"><path
           d="m 0,0 v -4.08 h -12.911 v -9.641 H 0 v -4.08 H -12.911 V -27.44 H 0 v -4.101 H -16.991 V 0 Z"
           style="fill:#e4e38d;fill-opacity:1;fill-rule:nonzero;stroke:none"
           id="path501"
           inkscape:connector-curvature="0" /></g><path
         inkscape:connector-curvature="0"
         id="path457"
         style="fill:#e4e38d;fill-opacity:1;fill-rule:nonzero;stroke:none;stroke-width:0.25611"
         d="m 3.5340579,47.12444 v 0.454339 H 0.45459463 v 3.357342 H 3.5340579 V 51.39046 H 0.45459463 v 3.811937 H -1.2628e-7 V 47.12444 Z" /><path
         inkscape:connector-curvature="0"
         id="path461"
         style="fill:#e4e38d;fill-opacity:1;fill-rule:nonzero;stroke:none;stroke-width:0.25611"
         d="M 8.4526707,51.652895 7.2207829,48.265588 5.9891513,51.652895 Z M 8.619142,52.107234 H 5.8221678 L 4.6965655,55.20232 H 4.2117498 L 7.2207829,46.937659 10.224694,55.20232 H 9.7452565 Z" /></g></g></svg>
