<?xml version="1.0" encoding="UTF-8" standalone="no"?>
<svg
   xmlns:dc="http://purl.org/dc/elements/1.1/"
   xmlns:cc="http://creativecommons.org/ns#"
   xmlns:rdf="http://www.w3.org/1999/02/22-rdf-syntax-ns#"
   xmlns:svg="http://www.w3.org/2000/svg"
   xmlns="http://www.w3.org/2000/svg"
   xmlns:sodipodi="http://sodipodi.sourceforge.net/DTD/sodipodi-0.dtd"
   xmlns:inkscape="http://www.inkscape.org/namespaces/inkscape"
   sodipodi:docname="sm_logo.svg"
   viewBox="0 0 178 62.999998"
   height="63"
   width="178"
   xml:space="preserve"
   inkscape:version="1.0 (4035a4f, 2020-05-01)"
   version="1.1"
   id="svg2"><metadata
     id="metadata8"><rdf:RDF><cc:Work
         rdf:about=""><dc:format>image/svg+xml</dc:format><dc:type
           rdf:resource="http://purl.org/dc/dcmitype/StillImage" /><dc:title></dc:title></cc:Work></rdf:RDF></metadata><defs
     id="defs6" /><sodipodi:namedview
     inkscape:document-rotation="0"
     inkscape:current-layer="g10"
     inkscape:window-maximized="1"
     inkscape:window-y="23"
     inkscape:window-x="1280"
     inkscape:cy="55.868752"
     inkscape:cx="18.59432"
     inkscape:zoom="0.96803779"
     showgrid="false"
     id="namedview4"
     inkscape:window-height="1035"
     inkscape:window-width="1920"
     inkscape:pageshadow="2"
     inkscape:pageopacity="0"
     guidetolerance="10"
     gridtolerance="10"
     objecttolerance="10"
     borderopacity="1"
     bordercolor="#666666"
     pagecolor="#ffffff" /><g
     transform="matrix(1.25,0,0,-1.25,0,111.7375)"
     inkscape:label="ink_ext_XXXXXX"
     inkscape:groupmode="layer"
     id="g10"><g
       transform="matrix(0.04743329,0,0,0.04743329,3.9716123,42.989999)"
       id="g12"><path
         inkscape:connector-curvature="0"
         id="path14"
         style="fill:#f0413f;fill-opacity:1;fill-rule:nonzero;stroke:none"
         d="m 1272.81,532.945 -83.51,52.559 v 25.633 c 0,11.961 -1.07,19.644 -3.21,22.851 -2.14,3.211 -5.77,4.918 -10.68,4.918 -10.9,0 -16.45,-8.765 -16.45,-26.699 0,-11.547 1.5,-20.301 4.7,-26.062 2.99,-5.774 11.54,-12.829 25.43,-21.153 39.94,-23.711 65.15,-43.367 75.61,-58.539 10.46,-15.164 15.6,-39.73 15.6,-73.687 0,-24.567 -3,-42.727 -8.76,-54.473 -5.77,-11.75 -16.88,-21.582 -33.33,-29.484 -16.45,-7.911 -35.67,-11.746 -57.68,-11.746 -24.13,0 -44.64,4.48 -61.73,13.671 -16.88,9.184 -27.98,20.715 -33.33,34.813 -5.33,14.101 -7.9,34.183 -7.9,60.035 v 77.754 l 83.53,-55.117 v -42.082 c 0,-13.032 1.07,-21.356 3.41,-24.992 2.35,-3.633 6.63,-5.559 12.6,-5.559 11.98,0 17.74,9.406 17.74,27.984 0,20.297 -2.79,33.758 -8.33,39.957 -5.77,6.192 -19.66,16.653 -42.09,31.395 -22.42,14.742 -37.16,25.637 -44.43,32.262 -14.53,13.457 -25.21,36.312 -25.21,73.058 0,26.492 3.42,45.926 10.04,58.098 13.67,24.566 44.87,39.094 87.59,39.094 23.28,0 43.15,-3.84 59.59,-11.325 16.45,-7.472 27.34,-17.089 32.69,-28.625 5.34,-11.316 8.11,-30.75 8.11,-58.308 v -66.231" /><path
         inkscape:connector-curvature="0"
         id="path16"
         style="fill:#f0413f;fill-opacity:1;fill-rule:nonzero;stroke:none"
         d="m 1417.59,550.465 c 0,14.527 -1.27,23.496 -3.84,26.914 -2.35,3.637 -6.2,5.348 -11.31,5.348 -5.14,0 -8.98,-1.926 -11.55,-5.774 -2.34,-3.637 -3.63,-12.816 -3.63,-27.344 V 421.656 c 0,-13.457 1.29,-22.222 3.63,-26.273 2.57,-4.059 6.41,-5.988 11.33,-5.988 5.12,0 8.97,1.929 11.53,5.988 2.57,4.051 3.84,12.176 3.84,24.347 z m 83.53,-91.641 c 0,-25.422 -1.28,-44.219 -3.84,-56.183 -2.56,-11.746 -8.12,-22.856 -16.45,-33.328 -16.88,-20.504 -43.58,-30.114 -77.76,-30.114 -38.24,0 -64.73,8.332 -79.47,25.207 -7.26,8.539 -12.39,18.793 -15.59,30.766 -3.2,12.172 -4.7,30.109 -4.7,54.258 v 72.621 c 0,26.273 2.78,47.004 8.54,61.742 11.32,29.695 41.44,49.129 87.59,49.129 38.66,0 66.86,-12.606 82.03,-31.192 7.47,-9.179 12.61,-18.789 15.38,-28.613 2.77,-9.836 4.27,-24.793 4.27,-44.863 v -69.43" /><path
         inkscape:connector-curvature="0"
         id="path18"
         style="fill:#f0413f;fill-opacity:1;fill-rule:nonzero;stroke:none"
         d="M 1727.08,627.797 V 344.32 h -86.31 c -3.41,7.91 -10.03,9.621 -20.08,5.133 -9.82,-4.277 -20.07,-6.418 -30.75,-6.418 -28.41,1.5 -44.86,10.906 -53.19,26.063 -4.07,7.484 -6.41,14.523 -7.27,21.156 -0.86,6.617 -1.28,21.996 -1.28,46.348 v 191.195 h 86.3 V 443.012 c 0,-21.996 0.65,-35.239 1.92,-39.301 1.5,-4.063 5.13,-6.199 11.11,-6.199 6.4,0 10.25,2.136 11.32,6.414 1.29,4.273 1.92,17.945 1.92,41.226 v 182.645 h 86.31" /><path
         inkscape:connector-curvature="0"
         id="path20"
         style="fill:#f0413f;fill-opacity:1;fill-rule:nonzero;stroke:none"
         d="m 1844.94,628.004 0.43,-16.012 c 11.96,11.106 29.48,20.93 53.19,20.93 14.74,0 26.92,-3.418 36.31,-10.465 9.4,-7.055 15.39,-15.812 18.17,-26.488 2.77,-10.465 4.06,-28.199 4.06,-52.977 V 344.32 h -86.31 l -0.21,189.266 c 0,19.441 -0.64,31.406 -1.92,35.684 -1.29,4.261 -4.92,6.398 -10.68,6.398 -6.2,0 -10.04,-2.551 -11.54,-7.469 -1.5,-4.918 -2.35,-17.949 -2.35,-39.308 l 0.22,-184.571 H 1758 v 283.477 l 86.94,0.207" /><path
         inkscape:connector-curvature="0"
         id="path22"
         style="fill:#f0413f;fill-opacity:1;fill-rule:nonzero;stroke:none"
         d="m 2096.75,556.449 c 0,20.715 -2.79,26.278 -13.25,26.278 -5.13,0 -9.61,-1.5 -13.24,-4.704 -3.64,-3.207 -5.77,-20.933 -6.42,-53.617 v -67.929 c 0.65,-37.383 2.78,-57.899 6.42,-61.52 3.63,-3.633 7.68,-5.562 12.6,-5.562 5.56,0 9.18,1.929 11.1,5.988 1.93,4.051 2.79,14.09 2.79,29.898 z m 86.3,133.723 V 344.32 h -86.3 c -4.92,7.91 -12.61,9.621 -23.07,4.918 -10.47,-4.492 -20.73,-6.84 -30.77,-6.84 -22.64,-0.429 -38.02,7.055 -46.35,22.438 -8.33,15.594 -12.4,33.742 -12.4,54.687 v 132.649 c 0,21.789 4.5,39.945 13.68,54.258 9.19,14.527 24.14,23.281 45.29,26.492 10.68,0 20.5,-1.926 29.27,-5.762 l 24.13,-10.262 0.22,73.274 h 86.3" /><path
         inkscape:connector-curvature="0"
         id="path24"
         style="fill:#5f534d;fill-opacity:1;fill-rule:nonzero;stroke:none"
         d="M 2494.03,690.172 V 344.32 h -78.62 l 0.21,211.7 -31.61,-211.7 h -55.75 l -33.12,211.7 v -211.7 h -78.61 v 345.852 l 110.87,-0.211 29.05,-148.035 25.64,148.035 111.94,0.211" /><path
         inkscape:connector-curvature="0"
         id="path26"
         style="fill:#5f534d;fill-opacity:1;fill-rule:nonzero;stroke:none"
         d="m 2616.37,604.984 -0.01,-260.664 h -88.88 v 260.664 z m 0,85.188 v -69.645 h -88.89 l 0.01,69.645 h 88.88" /><path
         inkscape:connector-curvature="0"
         id="path28"
         style="fill:#5f534d;fill-opacity:1;fill-rule:nonzero;stroke:none"
         d="m 2833.58,690.387 1.07,-69.856 -57.04,0.426 V 344.32 h -89.93 v 276.637 l -55.76,-0.426 v 69.856 h 201.66" /><path
         inkscape:connector-curvature="0"
         id="path30"
         style="fill:#5f534d;fill-opacity:1;fill-rule:nonzero;stroke:none"
         d="M 1084.3,109.453 H 2825.14 V 242.656 H 1084.3 Z" /><path
         inkscape:connector-curvature="0"
         id="path32"
         style="fill:#ffffff;fill-opacity:1;fill-rule:nonzero;stroke:none"
         d="m 1137.65,135.605 h 13.6836 v 59.7031 H 1137.65 Z" /><path
         inkscape:connector-curvature="0"
         id="path34"
         style="fill:#ffffff;fill-opacity:1;fill-rule:nonzero;stroke:none"
         d="m 1144.47,218.988 c -2.47,0 -4.64,-0.886 -6.44,-2.648 -1.81,-1.766 -2.72,-3.957 -2.72,-6.512 0,-2.551 0.91,-4.75 2.72,-6.508 1.8,-1.761 3.97,-2.656 6.44,-2.656 2.51,0 4.69,0.895 6.49,2.656 1.81,1.758 2.73,3.957 2.73,6.508 0,2.555 -0.92,4.746 -2.73,6.512 -1.8,1.762 -3.98,2.648 -6.49,2.648" /><path
         inkscape:connector-curvature="0"
         id="path36"
         style="fill:#ffffff;fill-opacity:1;fill-rule:nonzero;stroke:none"
         d="m 1202.9,198.441 c -6.1,0 -10.65,-2.191 -13.57,-6.523 v 3.391 h -13.73 v -59.704 h 13.73 v 42.969 c 0.3,0.59 0.94,1.547 2.3,2.953 2.26,2.145 4.84,3.18 7.91,3.18 3.11,0 5.71,-1.059 7.95,-3.262 2.24,-2.175 3.32,-4.726 3.32,-7.789 v -38.051 h 13.68 v 38.516 c -0.12,6.895 -2.1,12.715 -5.92,17.317 -3.87,4.648 -9.14,7.003 -15.67,7.003" /><path
         inkscape:connector-curvature="0"
         id="path38"
         style="fill:#ffffff;fill-opacity:1;fill-rule:nonzero;stroke:none"
         d="m 1268.64,216.918 h -13.68 v -21.609 h -10.35 v -13.676 h 10.35 v -46.028 h 13.68 v 46.028 H 1279 v 13.676 h -10.36 v 21.609" /><path
         inkscape:connector-curvature="0"
         id="path40"
         style="fill:#ffffff;fill-opacity:1;fill-rule:nonzero;stroke:none"
         d="m 1315.2,180.449 c 3.73,3.735 8.1,5.547 13.35,5.547 3.72,0 5.84,-0.34 7.04,-0.742 l -25.18,-25.234 c -0.41,1.214 -0.75,3.339 -0.75,7.031 0,5.215 1.87,9.722 5.54,13.398 z m 29.69,-23.371 c -1.48,-1.769 -2.46,-2.906 -2.91,-3.394 -3.69,-3.664 -8.21,-5.52 -13.43,-5.52 -4.09,0 -7.1,0.559 -8.98,1.66 l 29.66,29.653 6.51,6.574 -0.65,0.73 c -1.78,2.004 -2.86,3.196 -3.24,3.574 -0.91,0.915 -1.86,1.774 -2.83,2.594 -5.83,4.684 -12.72,7.063 -20.47,7.063 -9.02,0 -16.84,-3.25 -23.24,-9.657 -6.41,-6.41 -9.66,-14.246 -9.66,-23.304 0,-9.051 3.25,-16.891 9.66,-23.301 6.4,-6.406 14.22,-9.652 23.24,-9.652 9.06,0 16.89,3.246 23.3,9.652 1.31,1.309 3.42,3.969 6.27,7.91 l 0.81,1.121 -13.58,4.86 -0.46,-0.563" /><path
         inkscape:connector-curvature="0"
         id="path42"
         style="fill:#ffffff;fill-opacity:1;fill-rule:nonzero;stroke:none"
         d="m 1391.94,189.41 v 5.899 h -13.67 v -59.704 h 13.67 v 30.637 c 0.14,4.848 2.01,9.09 5.57,12.617 2.3,2.297 5.47,3.567 9.4,3.778 l 0.99,0.058 v 14.118 l -1.09,-0.051 c -5.72,-0.274 -10.71,-2.742 -14.87,-7.352" /><path
         inkscape:connector-curvature="0"
         id="path44"
         style="fill:#ffffff;fill-opacity:1;fill-rule:nonzero;stroke:none"
         d="m 1454.14,198.441 c -6.1,0 -10.65,-2.191 -13.57,-6.523 v 3.391 h -13.73 v -59.704 h 13.73 v 42.969 c 0.3,0.59 0.95,1.547 2.31,2.953 2.25,2.145 4.83,3.18 7.9,3.18 3.11,0 5.71,-1.059 7.96,-3.262 2.24,-2.175 3.32,-4.726 3.32,-7.789 v -38.051 h 13.68 v 38.516 c -0.12,6.895 -2.11,12.715 -5.93,17.317 -3.87,4.648 -9.14,7.003 -15.67,7.003" /><path
         inkscape:connector-curvature="0"
         id="path46"
         style="fill:#ffffff;fill-opacity:1;fill-rule:nonzero;stroke:none"
         d="m 1549.16,162.836 c -0.64,-3.359 -2.35,-6.465 -5.06,-9.211 -3.7,-3.66 -8.2,-5.52 -13.38,-5.52 -5.21,0 -9.73,1.872 -13.4,5.551 -3.68,3.672 -5.54,8.164 -5.54,13.34 0,5.207 1.86,9.707 5.53,13.371 3.68,3.66 8.2,5.516 13.41,5.516 5.18,0 9.68,-1.856 13.37,-5.512 2.74,-2.777 4.46,-5.914 5.07,-9.121 z m 0,29.84 c -5.38,4.797 -11.57,7.222 -18.44,7.222 -9.05,0 -16.88,-3.238 -23.28,-9.625 -6.39,-6.394 -9.62,-14.234 -9.62,-23.277 0,-9.047 3.23,-16.879 9.62,-23.273 6.4,-6.387 14.23,-9.625 23.28,-9.625 6.87,0 13.06,2.441 18.44,7.265 v -5.812 h 13.73 v 59.758 h -13.73 v -2.633" /><path
         inkscape:connector-curvature="0"
         id="path48"
         style="fill:#ffffff;fill-opacity:1;fill-rule:nonzero;stroke:none"
         d="m 1607.21,216.918 h -13.68 v -21.609 h -10.35 v -13.676 h 10.35 v -46.028 h 13.68 v 46.028 h 10.36 v 13.676 h -10.36 v 21.609" /><path
         inkscape:connector-curvature="0"
         id="path50"
         style="fill:#ffffff;fill-opacity:1;fill-rule:nonzero;stroke:none"
         d="m 1645.34,218.988 c -2.48,0 -4.64,-0.886 -6.44,-2.648 -1.81,-1.766 -2.72,-3.957 -2.72,-6.512 0,-2.551 0.91,-4.75 2.72,-6.508 1.8,-1.761 3.96,-2.656 6.44,-2.656 2.52,0 4.7,0.895 6.49,2.656 1.81,1.758 2.73,3.957 2.73,6.508 0,2.555 -0.92,4.746 -2.73,6.512 -1.79,1.762 -3.97,2.648 -6.49,2.648" /><path
         inkscape:connector-curvature="0"
         id="path52"
         style="fill:#ffffff;fill-opacity:1;fill-rule:nonzero;stroke:none"
         d="m 1638.53,135.605 h 13.6797 v 59.7031 H 1638.53 Z" /><path
         inkscape:connector-curvature="0"
         id="path54"
         style="fill:#ffffff;fill-opacity:1;fill-rule:nonzero;stroke:none"
         d="m 1719.4,153.684 c -3.67,-3.664 -8.18,-5.52 -13.4,-5.52 -5.21,0 -9.72,1.856 -13.39,5.52 -3.69,3.656 -5.55,8.156 -5.55,13.367 0,5.176 1.87,9.679 5.55,13.375 v 0.004 c 3.68,3.695 8.18,5.566 13.39,5.566 5.22,0 9.72,-1.871 13.4,-5.57 3.68,-3.696 5.55,-8.199 5.55,-13.375 0,-5.211 -1.86,-9.711 -5.55,-13.367 z m -13.4,46.328 c -9.01,0 -16.83,-3.25 -23.24,-9.657 -6.41,-6.41 -9.66,-14.246 -9.66,-23.304 0,-9.051 3.25,-16.891 9.66,-23.301 6.41,-6.406 14.23,-9.652 23.24,-9.652 9.07,0 16.89,3.25 23.28,9.652 6.39,6.41 9.63,14.25 9.63,23.301 0,9.058 -3.24,16.894 -9.63,23.304 -6.39,6.403 -14.21,9.657 -23.28,9.657" /><path
         inkscape:connector-curvature="0"
         id="path56"
         style="fill:#ffffff;fill-opacity:1;fill-rule:nonzero;stroke:none"
         d="m 1786.16,198.441 c -6.1,0 -10.64,-2.191 -13.57,-6.523 v 3.391 h -13.73 v -59.704 h 13.73 v 42.969 c 0.3,0.59 0.94,1.547 2.31,2.953 2.25,2.145 4.83,3.18 7.9,3.18 3.11,0 5.71,-1.059 7.96,-3.262 2.23,-2.175 3.32,-4.726 3.32,-7.789 v -38.051 h 13.67 v 38.516 c -0.11,6.895 -2.1,12.715 -5.92,17.317 -3.87,4.648 -9.14,7.003 -15.67,7.003" /><path
         inkscape:connector-curvature="0"
         id="path58"
         style="fill:#ffffff;fill-opacity:1;fill-rule:nonzero;stroke:none"
         d="m 1881.18,162.836 c -0.64,-3.359 -2.35,-6.465 -5.07,-9.211 -3.69,-3.66 -8.2,-5.52 -13.37,-5.52 -5.22,0 -9.72,1.872 -13.41,5.551 -3.68,3.672 -5.54,8.164 -5.54,13.34 0,5.207 1.86,9.707 5.54,13.371 3.69,3.66 8.19,5.516 13.41,5.516 5.17,0 9.68,-1.856 13.36,-5.512 2.75,-2.777 4.47,-5.914 5.08,-9.121 z m 0,29.84 c -5.38,4.797 -11.57,7.222 -18.44,7.222 -9.05,0 -16.88,-3.238 -23.28,-9.625 -6.39,-6.394 -9.63,-14.234 -9.63,-23.277 0,-9.047 3.24,-16.879 9.63,-23.273 6.4,-6.387 14.23,-9.625 23.28,-9.625 6.87,0 13.06,2.441 18.44,7.265 v -5.812 h 13.73 v 59.758 h -13.73 v -2.633" /><path
         inkscape:connector-curvature="0"
         id="path60"
         style="fill:#ffffff;fill-opacity:1;fill-rule:nonzero;stroke:none"
         d="m 1918.27,135.605 h 13.7422 v 91.7305 H 1918.27 Z" /><path
         inkscape:connector-curvature="0"
         id="path62"
         style="fill:#ffffff;fill-opacity:1;fill-rule:nonzero;stroke:none"
         d="m 2010.43,174.867 c -3.04,1.953 -4.21,2.867 -4.65,3.281 -0.58,0.586 -0.86,1.278 -0.86,2.118 0,0.839 0.29,1.543 0.89,2.144 1.21,1.215 3.2,1.086 4.05,0.25 0.02,-0.027 0.25,-0.312 0.57,-1.445 l 0.28,-1.012 13.2,3.813 -0.21,0.957 c -0.6,2.718 -2.02,5.207 -4.19,7.39 -3.07,3.106 -6.96,4.68 -11.55,4.68 -4.6,0 -8.58,-1.66 -11.82,-4.934 -3.26,-3.261 -4.9,-7.246 -4.9,-11.843 0,-4.563 1.64,-8.516 4.9,-11.77 1.84,-1.84 4.83,-3.879 9.07,-6.187 2.99,-1.887 4.94,-3.293 5.82,-4.168 1.15,-1.153 1.71,-2.504 1.71,-4.133 0,-1.707 -0.57,-3.09 -1.74,-4.242 -1.16,-1.153 -2.53,-1.715 -4.16,-1.715 -1.64,0 -3.01,0.562 -4.19,1.715 -0.39,0.382 -0.92,1.234 -1.28,3.097 l -0.21,1.043 -13.58,-2.898 0.21,-1.024 c 0.82,-3.918 2.57,-7.234 5.2,-9.867 3.81,-3.847 8.47,-5.797 13.85,-5.797 5.42,0 10.09,1.946 13.87,5.774 3.79,3.816 5.7,8.5 5.7,13.914 0,5.301 -1.92,9.93 -5.73,13.781 -2.18,2.176 -5.55,4.508 -10.25,7.078" /><path
         inkscape:connector-curvature="0"
         id="path64"
         style="fill:#ffffff;fill-opacity:1;fill-rule:nonzero;stroke:none"
         d="m 2090.15,153.684 c -3.68,-3.664 -8.19,-5.52 -13.4,-5.52 -5.21,0 -9.73,1.856 -13.4,5.52 -3.68,3.656 -5.54,8.156 -5.54,13.367 0,5.176 1.86,9.679 5.54,13.375 v 0.004 c 3.68,3.695 8.19,5.566 13.4,5.566 5.21,0 9.71,-1.871 13.4,-5.57 3.68,-3.696 5.54,-8.199 5.54,-13.375 0,-5.211 -1.86,-9.711 -5.54,-13.367 z m -13.4,46.328 c -9.02,0 -16.84,-3.25 -23.25,-9.657 -6.41,-6.41 -9.65,-14.246 -9.65,-23.304 0,-9.051 3.24,-16.891 9.65,-23.301 6.41,-6.406 14.23,-9.652 23.25,-9.652 9.06,0 16.89,3.25 23.27,9.652 6.39,6.41 9.63,14.25 9.63,23.301 0,9.058 -3.24,16.894 -9.63,23.304 -6.38,6.403 -14.21,9.657 -23.27,9.657" /><path
         inkscape:connector-curvature="0"
         id="path66"
         style="fill:#ffffff;fill-opacity:1;fill-rule:nonzero;stroke:none"
         d="m 2166.28,159.664 c 0,-3.098 -1.1,-5.664 -3.36,-7.851 -2.26,-2.196 -4.85,-3.258 -7.92,-3.258 -3.36,0 -6.09,1.074 -8.34,3.285 -2.24,2.203 -3.33,4.758 -3.33,7.824 v 35.645 h -13.73 v -36.11 c 0.12,-6.933 2.52,-12.789 7.14,-17.406 4.63,-4.625 10.78,-6.969 18.32,-6.969 7.19,0 13.19,2.344 17.81,6.973 4.58,4.621 6.97,10.473 7.08,17.418 v 36.094 h -13.67 v -35.645" /><path
         inkscape:connector-curvature="0"
         id="path68"
         style="fill:#ffffff;fill-opacity:1;fill-rule:nonzero;stroke:none"
         d="m 2230.56,198.441 c -6.1,0 -10.64,-2.191 -13.57,-6.523 v 3.391 h -13.73 v -59.704 h 13.73 v 42.969 c 0.3,0.59 0.94,1.547 2.31,2.953 2.25,2.145 4.83,3.18 7.9,3.18 3.11,0 5.71,-1.059 7.95,-3.262 2.24,-2.175 3.33,-4.726 3.33,-7.789 v -38.051 h 13.67 v 38.516 c -0.12,6.895 -2.1,12.715 -5.92,17.317 -3.87,4.648 -9.14,7.003 -15.67,7.003" /><path
         inkscape:connector-curvature="0"
         id="path70"
         style="fill:#ffffff;fill-opacity:1;fill-rule:nonzero;stroke:none"
         d="m 2325.63,162.836 c -0.64,-3.313 -2.36,-6.395 -5.12,-9.152 -3.66,-3.664 -8.16,-5.52 -13.37,-5.52 -5.22,0 -9.72,1.856 -13.41,5.52 -3.68,3.66 -5.54,8.164 -5.54,13.367 0,5.176 1.86,9.679 5.54,13.375 3.69,3.699 8.2,5.57 13.41,5.57 5.2,0 9.7,-1.871 13.37,-5.57 2.78,-2.785 4.51,-5.918 5.12,-9.117 z m 0,29.902 c -5.38,4.832 -11.59,7.274 -18.49,7.274 -9.06,0 -16.89,-3.25 -23.28,-9.657 -6.39,-6.414 -9.63,-14.25 -9.63,-23.304 0,-9.047 3.24,-16.883 9.63,-23.301 6.39,-6.406 14.22,-9.652 23.28,-9.652 6.9,0 13.11,2.441 18.49,7.265 v -5.758 h 13.73 v 91.672 h -13.73 v -34.539" /><path
         inkscape:connector-curvature="0"
         id="path72"
         style="fill:#ffffff;fill-opacity:1;fill-rule:nonzero;stroke:none"
         d="m 2417.79,174.867 c -3.04,1.953 -4.21,2.867 -4.65,3.281 -0.58,0.586 -0.87,1.278 -0.87,2.118 0,0.839 0.3,1.543 0.9,2.144 1.2,1.215 3.2,1.086 4.05,0.25 0.02,-0.027 0.25,-0.312 0.57,-1.445 l 0.28,-1.012 13.2,3.813 -0.21,0.957 c -0.6,2.718 -2.01,5.207 -4.19,7.39 -3.07,3.106 -6.95,4.68 -11.55,4.68 -4.6,0 -8.58,-1.66 -11.83,-4.934 -3.24,-3.261 -4.89,-7.246 -4.89,-11.843 0,-4.563 1.65,-8.516 4.89,-11.77 1.85,-1.84 4.84,-3.879 9.08,-6.187 2.99,-1.887 4.94,-3.293 5.82,-4.168 1.14,-1.153 1.71,-2.504 1.71,-4.133 0,-1.707 -0.57,-3.09 -1.74,-4.242 -1.16,-1.153 -2.53,-1.715 -4.16,-1.715 -1.64,0 -3.01,0.562 -4.2,1.715 -0.38,0.382 -0.91,1.234 -1.28,3.097 l -0.2,1.043 -13.58,-2.898 0.21,-1.024 c 0.82,-3.918 2.58,-7.234 5.21,-9.867 3.8,-3.847 8.46,-5.797 13.84,-5.797 5.42,0 10.09,1.946 13.87,5.774 3.78,3.816 5.7,8.5 5.7,13.914 0,5.301 -1.93,9.93 -5.73,13.781 -2.18,2.176 -5.55,4.508 -10.25,7.078" /><path
         inkscape:connector-curvature="0"
         id="path74"
         style="fill:#ffffff;fill-opacity:1;fill-rule:nonzero;stroke:none"
         d="m 2491.24,159.664 c 0,-3.098 -1.09,-5.664 -3.36,-7.851 -2.26,-2.196 -4.84,-3.258 -7.92,-3.258 -3.36,0 -6.09,1.074 -8.33,3.285 -2.24,2.203 -3.33,4.758 -3.33,7.824 v 35.645 h -13.74 v -36.11 c 0.12,-6.933 2.52,-12.789 7.14,-17.406 4.63,-4.625 10.79,-6.969 18.32,-6.969 7.2,0 13.19,2.344 17.82,6.973 4.58,4.621 6.96,10.473 7.08,17.418 v 36.094 h -13.68 v -35.645" /><path
         inkscape:connector-curvature="0"
         id="path76"
         style="fill:#ffffff;fill-opacity:1;fill-rule:nonzero;stroke:none"
         d="m 2579.6,198.383 c -7.26,0 -12.23,-2.414 -14.83,-7.184 -1.62,4.719 -5.36,7.184 -10.98,7.184 -5.26,0 -9.24,-1.82 -11.89,-5.422 v 2.348 h -13.68 v -59.704 h 13.68 v 38.864 c 0.18,6.113 1.14,7.926 1.7,8.465 1.18,1.16 2.56,1.718 4.2,1.718 2.54,0 5.9,-0.769 5.9,-7.464 l -0.06,-41.583 h 13.68 v 34.528 c 0,9.648 1.1,12.164 1.76,12.801 1.18,1.16 2.55,1.718 4.19,1.718 2.51,0 5.84,-0.769 5.84,-7.464 v -41.583 h 13.74 v 46.899 c 0,10.539 -4.46,15.879 -13.25,15.879" /><path
         inkscape:connector-curvature="0"
         id="path78"
         style="fill:#ffffff;fill-opacity:1;fill-rule:nonzero;stroke:none"
         d="m 2667.6,198.383 c -7.26,0 -12.24,-2.414 -14.84,-7.184 -1.61,4.719 -5.35,7.184 -10.97,7.184 -5.26,0 -9.24,-1.82 -11.89,-5.422 v 2.348 h -13.68 v -59.704 h 13.68 v 38.864 c 0.17,6.113 1.13,7.926 1.7,8.465 1.18,1.16 2.55,1.718 4.19,1.718 2.54,0 5.9,-0.769 5.9,-7.464 l -0.05,-41.583 h 13.68 v 34.528 c 0,9.648 1.09,12.164 1.75,12.801 1.19,1.16 2.56,1.718 4.2,1.718 2.51,0 5.84,-0.769 5.84,-7.464 v -41.583 h 13.73 v 46.899 c 0,10.539 -4.45,15.879 -13.24,15.879" /><path
         inkscape:connector-curvature="0"
         id="path80"
         style="fill:#ffffff;fill-opacity:1;fill-rule:nonzero;stroke:none"
         d="m 2711.97,218.988 c -2.47,0 -4.64,-0.886 -6.44,-2.648 -1.81,-1.766 -2.72,-3.957 -2.72,-6.512 0,-2.551 0.91,-4.75 2.72,-6.508 1.8,-1.761 3.97,-2.656 6.44,-2.656 2.52,0 4.7,0.895 6.5,2.656 1.8,1.758 2.72,3.957 2.72,6.508 0,2.555 -0.92,4.746 -2.72,6.512 -1.8,1.762 -3.98,2.648 -6.5,2.648" /><path
         inkscape:connector-curvature="0"
         id="path82"
         style="fill:#ffffff;fill-opacity:1;fill-rule:nonzero;stroke:none"
         d="m 2705.16,135.605 h 13.6797 v 59.7031 H 2705.16 Z" /><path
         inkscape:connector-curvature="0"
         id="path84"
         style="fill:#ffffff;fill-opacity:1;fill-rule:nonzero;stroke:none"
         d="m 2763.78,195.309 v 21.609 h -13.68 v -21.609 h -10.36 v -13.676 h 10.36 v -46.028 h 13.68 v 46.028 h 10.35 v 13.676 h -10.35" /><path
         inkscape:connector-curvature="0"
         id="path86"
         style="fill:#5f534d;fill-opacity:1;fill-rule:nonzero;stroke:none"
         d="m 780.656,447.77 v 0 c 0,-183.559 -149.328,-332.891 -332.89,-332.891 -183.555,0 -332.883,149.332 -332.883,332.891 0,91.777 37.328,175 97.605,235.277 l -81.195,81.191 C 50.2188,683.16 0,571.223 0,447.77 0,200.863 200.867,0 447.766,0 694.672,0 895.535,200.863 895.535,447.77 H 780.656" /><path
         inkscape:connector-curvature="0"
         id="path88"
         style="fill:#f0413f;fill-opacity:1;fill-rule:nonzero;stroke:none"
         d="m 730.742,622.832 97.656,60.41 C 755.418,800.781 629.555,882.074 484.32,893.887 V 567.641 c -11.566,3.527 -23.832,5.449 -36.554,5.449 -69.211,0 -125.321,-56.106 -125.321,-125.32 0,-69.215 56.11,-125.325 125.321,-125.325 69.214,0 125.324,56.11 125.324,125.325 v 151.878 c 16.531,-13.656 30.902,-29.859 42.265,-48.199 l 80.016,49.5 c -29.328,47.336 -71.855,85.418 -122.281,109.496 v 45.473 C 638.605,729.215 693.809,682.32 730.742,622.832" /></g></g></svg>
