<?xml version="1.0" encoding="UTF-8" standalone="no"?>
<svg
   xmlns:dc="http://purl.org/dc/elements/1.1/"
   xmlns:cc="http://creativecommons.org/ns#"
   xmlns:rdf="http://www.w3.org/1999/02/22-rdf-syntax-ns#"
   xmlns:svg="http://www.w3.org/2000/svg"
   xmlns="http://www.w3.org/2000/svg"
   xmlns:sodipodi="http://sodipodi.sourceforge.net/DTD/sodipodi-0.dtd"
   xmlns:inkscape="http://www.inkscape.org/namespaces/inkscape"
   version="1.1"
   id="svg355"
   xml:space="preserve"
   width="1150"
   height="55"
   viewBox="0 0 1150 54.999999"
   sodipodi:docname="spd_logo.svg"
   inkscape:version="1.0beta2 (074b463, 2020-02-02)"><metadata
     id="metadata361"><rdf:RDF><cc:Work
         rdf:about=""><dc:format>image/svg+xml</dc:format><dc:type
           rdf:resource="http://purl.org/dc/dcmitype/StillImage" /><dc:title></dc:title></cc:Work></rdf:RDF></metadata><defs
     id="defs359"><clipPath
   clipPathUnits="userSpaceOnUse"
   id="clipPath381"><path
     d="M 0,0 H 284 V 227 H 0 Z"
     id="path379"
     inkscape:connector-curvature="0" /></clipPath><clipPath
   id="clipPath469"
   clipPathUnits="userSpaceOnUse"><path
     inkscape:connector-curvature="0"
     id="path467"
     d="M 0,226.772 H 283.465 V 0 H 0 Z" /></clipPath><clipPath
   clipPathUnits="userSpaceOnUse"
   id="clipPath381-5"><path
     d="M 0,0 H 284 V 227 H 0 Z"
     id="path379-3"
     inkscape:connector-curvature="0" /></clipPath><clipPath
   id="clipPath469-5"
   clipPathUnits="userSpaceOnUse"><path
     inkscape:connector-curvature="0"
     id="path467-6"
     d="M 0,226.772 H 283.465 V 0 H 0 Z" /></clipPath><clipPath
   id="clipPath858"
   clipPathUnits="userSpaceOnUse">
      <path
   inkscape:connector-curvature="0"
   id="path856"
   d="M 0,212.598 H 184.252 V 0 H 0 Z" />
    </clipPath>
    
  
      
    
        
        
        
        
        
        
        
        
        
        
        
        
        
        
        
        
        
        
        
        
        
        
        
        
        
        
        
        
        
        
        
        
        
        
        
        
        
        
      <clipPath
   id="clipPath1168"
   clipPathUnits="userSpaceOnUse">
      <path
   inkscape:connector-curvature="0"
   id="path1166"
   d="M 0,212.598 H 184.252 V 0 H 0 Z" />
    </clipPath>
    
  
      
    
        
        
        
        
        
        
        
        
        
        
        
        
        
        
        
        
        
      </defs><sodipodi:namedview
     inkscape:snap-global="false"
     pagecolor="#ffffff"
     bordercolor="#666666"
     inkscape:document-rotation="0"
     borderopacity="1"
     objecttolerance="10"
     gridtolerance="10"
     guidetolerance="10"
     inkscape:pageopacity="0"
     inkscape:pageshadow="2"
     inkscape:window-width="1920"
     inkscape:window-height="1035"
     id="namedview357"
     showgrid="false"
     showguides="false"
     units="px"
     inkscape:zoom="0.77118315"
     inkscape:cx="426.57057"
     inkscape:cy="74.016677"
     inkscape:window-x="1280"
     inkscape:window-y="23"
     inkscape:window-maximized="1"
     inkscape:current-layer="layer2"
     inkscape:guide-bbox="true"><sodipodi:guide
       position="612.00035,25.968761"
       orientation="0,-1"
       id="guide105" /><sodipodi:guide
       position="591.29924,87.681264"
       orientation="0,-1"
       id="guide107" /><sodipodi:guide
       position="582.22228,39.054684"
       orientation="0,-1"
       id="guide109" /><sodipodi:guide
       position="510.90329,13.768863"
       orientation="0,-1"
       id="guide111" /></sodipodi:namedview><g
     inkscape:groupmode="layer"
     id="layer1"
     inkscape:label="base"><rect
       y="0"
       x="0"
       height="55"
       width="1150"
       id="rect748"
       style="display:inline;fill:#333333;stroke:none;stroke-width:0.843496" /></g><g
     inkscape:groupmode="layer"
     id="layer2"
     inkscape:label="spd"><text
       xml:space="preserve"
       style="font-style:normal;font-weight:normal;font-size:34.6213px;line-height:1.25;font-family:sans-serif;text-align:end;text-anchor:end;display:inline;fill:#e4e38d;fill-opacity:1;stroke:none;stroke-width:0.865532"
       x="453.6315"
       y="41.176094"
       id="text223"><tspan
         sodipodi:role="line"
         x="453.6315"
         y="41.176094"
         style="font-style:normal;font-variant:normal;font-weight:normal;font-stretch:normal;font-family:'Caviar Dreams';-inkscape-font-specification:'Caviar Dreams';text-align:end;text-anchor:end;fill:#e4e38d;fill-opacity:1;stroke-width:0.865532"
         id="tspan101">SYNTH PANELS <tspan
   style="font-style:normal;font-variant:normal;font-weight:bold;font-stretch:normal;font-family:'Caviar Dreams';-inkscape-font-specification:'Caviar Dreams Bold';text-align:end;text-anchor:end;stroke-width:0.865532"
   id="tspan103">DESIGNER</tspan></tspan></text></g><g
     inkscape:groupmode="layer"
     id="layer3"
     inkscape:label="beta"><text
       transform="rotate(-0.57764107)"
       id="text944"
       y="51.890728"
       x="1053.7677"
       style="font-style:normal;font-weight:normal;font-size:21.0184px;line-height:1.25;font-family:sans-serif;display:inline;fill:#000000;fill-opacity:1;stroke:none;stroke-width:0.525459"
       xml:space="preserve"><tspan
         style="font-style:normal;font-variant:normal;font-weight:normal;font-stretch:normal;font-family:'Caviar Dreams';-inkscape-font-specification:'Caviar Dreams';fill:#ff0000;stroke-width:0.525459"
         y="51.890728"
         x="1053.7677"
         id="tspan942"
         sodipodi:role="line">BETA 1.0</tspan></text></g><g
     id="g363"
     inkscape:groupmode="layer"
     inkscape:label="logo_faselunare"
     transform="matrix(1.3333333,0,0,1.3333333,0,6.8924001e-6)"
     style="display:none"><g
       transform="matrix(1.067268,0,0,1.067268,230.67747,-55.352318)"
       id="g591"><g
         transform="matrix(0.25610972,0,0,-0.25610972,463.03743,107.72924)"
         id="g471"><path
           inkscape:connector-curvature="0"
           id="path473"
           style="fill:#e4e38d;fill-opacity:1;fill-rule:nonzero;stroke:none"
           d="m 0,0 c -2.247,0.749 -4.021,1.773 -5.322,3.075 -1.302,1.301 -1.953,2.878 -1.953,4.731 0,1.813 0.651,3.376 1.953,4.681 1.301,1.308 2.878,1.963 4.73,1.963 1.84,0 3.417,-0.651 4.732,-1.952 0.721,-0.696 1.222,-1.477 1.498,-2.346 L 4.042,9.521 c -0.236,0.644 -0.624,1.235 -1.164,1.775 -0.958,0.946 -2.117,1.42 -3.47,1.42 -1.352,0 -2.511,-0.477 -3.469,-1.43 -0.959,-0.953 -1.438,-2.112 -1.438,-3.48 0,-1.353 0.479,-2.509 1.438,-3.469 0.893,-0.88 2.129,-1.689 3.707,-2.424 C 2.168,1.097 4.29,-0.17 6.014,-1.893 7.839,-3.706 8.753,-5.9 8.753,-8.477 c 0,-2.588 -0.914,-4.796 -2.739,-6.624 -1.828,-1.825 -4.029,-2.739 -6.606,-2.739 -2.576,0 -4.777,0.919 -6.604,2.76 -1.457,1.459 -2.331,3.154 -2.621,5.086 l 1.674,0.61 c 0.186,-1.707 0.916,-3.2 2.19,-4.473 1.486,-1.487 3.272,-2.229 5.361,-2.229 2.104,0 3.897,0.742 5.381,2.229 1.486,1.484 2.229,3.279 2.229,5.38 0,2.089 -0.743,3.877 -2.229,5.362 C 3.49,-1.813 1.893,-0.775 0,0" /></g><g
         transform="matrix(0.25610972,0,0,-0.25610972,470.58591,104.12444)"
         id="g475"><path
           inkscape:connector-curvature="0"
           id="path477"
           style="fill:#e4e38d;fill-opacity:1;fill-rule:nonzero;stroke:none"
           d="M 0,0 V -1.774 H -13.995 V -14.883 H 0 v -1.774 h -13.995 v -13.11 H 0 v -1.774 H -15.771 V 0 Z" /></g><g
         transform="matrix(0.25610972,0,0,-0.25610972,472.23287,112.2024)"
         id="g479"><path
           inkscape:connector-curvature="0"
           id="path481"
           style="fill:#e4e38d;fill-opacity:1;fill-rule:nonzero;stroke:none"
           d="M 0,0 V 31.541 H 4.08 V 4.101 H 15.355 V 0 Z" /></g><g
         transform="matrix(0.25610972,0,0,-0.25610972,481.74194,104.12444)"
         id="g483"><path
           inkscape:connector-curvature="0"
           id="path485"
           style="fill:#e4e38d;fill-opacity:1;fill-rule:nonzero;stroke:none"
           d="m 0,0 h 4.101 v -22.216 c -0.357,-2.537 -1.403,-4.68 -3.137,-6.427 -2.102,-2.103 -4.632,-3.154 -7.587,-3.154 -2.959,0 -5.485,1.048 -7.58,3.145 -2.099,2.095 -3.144,4.623 -3.144,7.58 V 0 h 4.1 v -21.072 c 0,-1.815 0.648,-3.369 1.94,-4.663 1.296,-1.294 2.857,-1.943 4.684,-1.943 1.837,0 3.404,0.645 4.689,1.933 C -0.645,-24.456 0,-22.9 0,-21.072 Z" /></g><g
         transform="matrix(0.25610972,0,0,-0.25610972,484.56489,104.12444)"
         id="g487"><path
           inkscape:connector-curvature="0"
           id="path489"
           style="fill:#e4e38d;fill-opacity:1;fill-rule:nonzero;stroke:none"
           d="m 0,0 h 3.727 l 13.01,-22.513 V 0 h 4.1 V -31.541 H 17.269 L 4.083,-8.753 V -31.541 H 0 Z" /></g><g
         transform="matrix(0.25610972,0,0,-0.25610972,495.08265,108.29949)"
         id="g491"><path
           inkscape:connector-curvature="0"
           id="path493"
           style="fill:#e4e38d;fill-opacity:1;fill-rule:nonzero;stroke:none"
           d="M 0,0 -2.701,7.391 -5.382,0 Z M -1.598,16.302 9.877,-15.239 H 5.54 L 1.478,-4.082 H -6.88 l -4.042,-11.157 h -4.354 l 11.471,31.541 z" /></g><g
         transform="matrix(0.25610972,0,0,-0.25610972,499.92497,105.17464)"
         id="g495"><path
           inkscape:connector-curvature="0"
           id="path497"
           style="fill:#e4e38d;fill-opacity:1;fill-rule:nonzero;stroke:none"
           d="m 0,0 v -13.247 h 3.727 c 1.813,0 3.367,0.647 4.663,1.942 1.292,1.294 1.94,2.861 1.94,4.701 0,1.827 -0.648,3.384 -1.94,4.672 C 7.094,-0.643 5.54,0 3.727,0 Z M 3.727,-17.348 H 0 V -27.44 H -4.079 V 4.101 h 8.947 c 2.537,-0.342 4.68,-1.388 6.429,-3.134 2.088,-2.104 3.133,-4.627 3.133,-7.571 0,-2.97 -1.045,-5.506 -3.133,-7.608 -1.447,-1.447 -2.551,-2.262 -3.313,-2.444 l 6.998,-10.784 h -4.947 z" /></g><g
         transform="matrix(0.25610972,0,0,-0.25610972,509.40254,104.12444)"
         id="g499"><path
           inkscape:connector-curvature="0"
           id="path501"
           style="fill:#e4e38d;fill-opacity:1;fill-rule:nonzero;stroke:none"
           d="m 0,0 v -4.08 h -12.911 v -9.641 H 0 v -4.08 H -12.911 V -27.44 H 0 v -4.101 H -16.991 V 0 Z" /></g><g
         transform="translate(310.44765,-28.073757)"
         id="g181"><g
           id="g503"
           transform="matrix(0.25610972,0,0,-0.25610972,158.53007,106.59112)"><path
             d="m 0,0 c 0,-22.853 14.706,-42.326 35.147,-49.481 -14.788,8.576 -24.762,24.572 -24.762,42.863 0,27.309 22.217,49.527 49.525,49.527 16.104,0 30.432,-7.729 39.483,-19.668 C 90.581,41.058 72.483,52.419 52.417,52.419 23.515,52.419 0,28.904 0,0"
             style="fill:#e4e38d;fill-opacity:1;fill-rule:nonzero;stroke:none"
             id="path505"
             inkscape:connector-curvature="0" /></g><g
           id="g507"
           transform="matrix(0.25610972,0,0,-0.25610972,177.06775,107.52164)"><path
             d="m 0,0 c 11.381,0 20.938,-7.847 23.618,-18.406 0.007,0.233 0.036,0.461 0.036,0.696 0,14.501 -11.797,26.297 -26.297,26.297 -14.5,0 -26.296,-11.796 -26.296,-26.297 0,-7.18 2.898,-13.692 7.58,-18.442 -1.93,3.49 -3.035,7.496 -3.035,11.759 C -24.394,-10.943 -13.451,0 0,0"
             style="fill:#e4e38d;fill-opacity:1;fill-rule:nonzero;stroke:none"
             id="path509"
             inkscape:connector-curvature="0" /></g><g
           id="g511"
           transform="matrix(0.25610972,0,0,-0.25610972,165.07137,110.31447)"><path
             d="m 0,0 c 0,22.071 17.956,40.027 40.027,40.027 17.108,0 31.736,-10.791 37.453,-25.921 -3.013,21.098 -21.193,37.372 -43.111,37.372 -24.017,0 -43.557,-19.54 -43.557,-43.558 0,-16.882 9.66,-31.541 23.736,-38.767 C 5.668,-23.5 0,-12.399 0,0"
             style="fill:#e4e38d;fill-opacity:1;fill-rule:nonzero;stroke:none"
             id="path513"
             inkscape:connector-curvature="0" /></g><g
           id="g515"
           transform="matrix(0.25610972,0,0,-0.25610972,177.4892,111.09929)"><path
             d="m 0,0 c 7.895,0 14.561,-5.311 16.646,-12.543 0.082,0.696 0.132,1.401 0.132,2.119 C 16.778,-0.264 8.515,8 -1.646,8 -11.805,8 -20.07,-0.264 -20.07,-10.424 c 0,-3.738 1.125,-7.214 3.045,-10.121 -0.196,1.042 -0.31,2.112 -0.31,3.21 C -17.335,-7.777 -9.558,0 0,0"
             style="fill:#e4e38d;fill-opacity:1;fill-rule:nonzero;stroke:none"
             id="path517"
             inkscape:connector-curvature="0" /></g><g
           id="g519"
           transform="matrix(0.25610972,0,0,-0.25610972,169.86569,117.10898)"><path
             d="m 0,0 c -4.237,5.461 -6.787,12.293 -6.787,19.725 0,17.791 14.474,32.265 32.266,32.265 12.911,0 24.043,-7.641 29.197,-18.623 C 51.502,48.881 37.747,60.588 21.308,60.588 2.527,60.588 -12.751,45.31 -12.751,26.53 -12.751,15.812 -7.764,6.248 0,0"
             style="fill:#e4e38d;fill-opacity:1;fill-rule:nonzero;stroke:none"
             id="path521"
             inkscape:connector-curvature="0" /></g><g
           id="g523"
           transform="matrix(0.25610972,0,0,-0.25610972,171.95457,121.54439)"><path
             d="m 0,0 c -32.193,0 -58.386,26.192 -58.386,58.386 0,32.195 26.193,58.388 58.386,58.388 10.253,0 20.048,-2.663 28.596,-7.459 -10.979,9.19 -25.117,14.729 -40.555,14.729 -34.92,0 -63.228,-28.308 -63.228,-63.228 0,-34.92 28.308,-63.228 63.228,-63.228 6.572,0 12.91,1.004 18.869,2.865 C 4.624,0.184 2.323,0 0,0"
             style="fill:#e4e38d;fill-opacity:1;fill-rule:nonzero;stroke:none"
             id="path525"
             inkscape:connector-curvature="0" /></g><g
           id="g527"
           transform="matrix(0.25610972,0,0,-0.25610972,180.29489,116.30416)"><path
             d="m 0,0 c 0.261,0.953 0.412,1.952 0.412,2.987 0,6.268 -5.099,11.367 -11.367,11.367 -6.267,0 -11.366,-5.099 -11.366,-11.367 0,-4.786 2.977,-8.882 7.173,-10.554 -0.85,1.326 -1.359,2.893 -1.359,4.583 0,4.707 3.829,8.537 8.536,8.537 C -4.316,5.553 -1.216,3.234 0,0"
             style="fill:#e4e38d;fill-opacity:1;fill-rule:nonzero;stroke:none"
             id="path529"
             inkscape:connector-curvature="0" /></g><g
           id="g531"
           transform="matrix(0.25610972,0,0,-0.25610972,177.59598,117.06847)"><path
             d="m 0,0 c 0,-1.416 1.151,-2.568 2.567,-2.568 1.418,0 2.571,1.152 2.571,2.568 0,1.417 -1.153,2.569 -2.571,2.569 C 1.151,2.569 0,1.417 0,0"
             style="fill:#e4e38d;fill-opacity:1;fill-rule:nonzero;stroke:none"
             id="path533"
             inkscape:connector-curvature="0" /></g></g><g
         transform="matrix(0.25610972,0,0,-0.25610972,452.93659,104.12444)"
         id="g455"><path
           inkscape:connector-curvature="0"
           id="path457"
           style="fill:#e4e38d;fill-opacity:1;fill-rule:nonzero;stroke:none"
           d="M 0,0 V -1.774 H -12.024 V -14.883 H 0 v -1.774 h -12.024 v -14.884 h -1.775 V 0 Z" /></g><g
         transform="matrix(0.25610972,0,0,-0.25610972,457.85521,108.6529)"
         id="g459"><path
           inkscape:connector-curvature="0"
           id="path461"
           style="fill:#e4e38d;fill-opacity:1;fill-rule:nonzero;stroke:none"
           d="M 0,0 -4.81,13.226 -9.619,0 Z m 0.65,-1.774 h -10.921 l -4.395,-12.085 h -1.893 L -4.81,18.411 6.919,-13.859 H 5.047 Z" /></g></g><g
       transform="matrix(0.93750005,0,0,0.93750005,491.25001,-5.6916256e-6)"
       inkscape:label="Knobs Group"
       id="knobs-group-1" /><g
       transform="matrix(0.81241299,0,0,0.81241299,306.43321,10.5)"
       id="g1018"><g
         transform="matrix(0.38784848,0,0,-0.38784848,601.45743,59.126292)"
         id="g1170">
          <path
   inkscape:connector-curvature="0"
   id="path1172"
   style="fill:#ffffff;fill-opacity:1;fill-rule:nonzero;stroke:none"
   d="m 0,0 -8.071,5.079 v 2.478 c 0,1.155 -0.104,1.899 -0.31,2.208 -0.207,0.31 -0.558,0.475 -1.033,0.475 -1.053,0 -1.589,-0.846 -1.589,-2.58 0,-1.116 0.145,-1.962 0.453,-2.519 0.29,-0.558 1.116,-1.239 2.458,-2.044 3.861,-2.291 6.297,-4.191 7.308,-5.657 1.011,-1.466 1.507,-3.84 1.507,-7.122 0,-2.374 -0.289,-4.129 -0.846,-5.264 -0.558,-1.136 -1.631,-2.086 -3.221,-2.849 -1.59,-0.765 -3.448,-1.136 -5.574,-1.136 -2.333,0 -4.314,0.433 -5.966,1.321 -1.632,0.888 -2.705,2.003 -3.221,3.365 -0.516,1.363 -0.764,3.304 -0.764,5.802 v 7.514 l 8.072,-5.326 v -4.067 c 0,-1.26 0.104,-2.065 0.33,-2.416 0.227,-0.351 0.64,-0.537 1.218,-0.537 1.157,0 1.714,0.909 1.714,2.705 0,1.961 -0.269,3.262 -0.805,3.861 -0.558,0.598 -1.9,1.61 -4.067,3.034 -2.168,1.425 -3.592,2.478 -4.295,3.118 -1.403,1.301 -2.436,3.509 -2.436,7.061 0,2.56 0.331,4.438 0.971,5.615 1.321,2.374 4.335,3.777 8.464,3.777 2.25,0 4.171,-0.371 5.76,-1.094 1.589,-0.721 2.642,-1.652 3.159,-2.766 C -0.268,10.942 0,9.064 0,6.4 Z" />
        </g><g
         transform="matrix(0.38784848,0,0,-0.38784848,606.88409,58.469703)"
         id="g1174">
          <path
   inkscape:connector-curvature="0"
   id="path1176"
   style="fill:#ffffff;fill-opacity:1;fill-rule:nonzero;stroke:none"
   d="M 0,0 C 0,1.404 -0.123,2.271 -0.371,2.602 -0.598,2.953 -0.97,3.118 -1.465,3.118 -1.96,3.118 -2.333,2.932 -2.581,2.56 -2.807,2.209 -2.931,1.321 -2.931,-0.083 v -12.365 c 0,-1.301 0.124,-2.148 0.35,-2.539 0.248,-0.393 0.621,-0.579 1.096,-0.579 0.494,0 0.866,0.186 1.114,0.579 0.248,0.391 0.371,1.176 0.371,2.353 z m 8.072,-8.856 c 0,-2.457 -0.124,-4.274 -0.37,-5.43 -0.248,-1.135 -0.785,-2.209 -1.59,-3.221 -1.632,-1.981 -4.212,-2.91 -7.515,-2.91 -3.696,0 -6.256,0.805 -7.68,2.436 -0.702,0.825 -1.198,1.816 -1.508,2.973 -0.309,1.176 -0.453,2.91 -0.453,5.244 v 7.018 c 0,2.539 0.268,4.542 0.825,5.967 1.094,2.87 4.005,4.748 8.465,4.748 3.736,0 6.462,-1.218 7.928,-3.014 C 6.896,4.067 7.392,3.139 7.66,2.189 7.928,1.239 8.072,-0.207 8.072,-2.146 Z" />
        </g><g
         transform="matrix(0.38784848,0,0,-0.38784848,618.48471,55.570885)"
         id="g1178">
          <path
   inkscape:connector-curvature="0"
   id="path1180"
   style="fill:#ffffff;fill-opacity:1;fill-rule:nonzero;stroke:none"
   d="m 0,0 v -27.396 h -8.341 c -0.33,0.764 -0.97,0.929 -1.941,0.496 -0.949,-0.414 -1.94,-0.621 -2.972,-0.621 -2.746,0.145 -4.336,1.054 -5.141,2.519 -0.392,0.723 -0.619,1.404 -0.702,2.044 -0.083,0.64 -0.124,2.126 -0.124,4.48 V 0 h 8.341 v -17.858 c 0,-2.126 0.062,-3.406 0.186,-3.799 0.145,-0.392 0.495,-0.599 1.073,-0.599 0.619,0 0.991,0.207 1.094,0.62 0.124,0.413 0.186,1.734 0.186,3.984 V 0 Z" />
        </g><g
         transform="matrix(0.38784848,0,0,-0.38784848,622.90273,55.563089)"
         id="g1182">
          <path
   inkscape:connector-curvature="0"
   id="path1184"
   style="fill:#ffffff;fill-opacity:1;fill-rule:nonzero;stroke:none"
   d="m 0,0 0.041,-1.548 c 1.156,1.073 2.849,2.023 5.141,2.023 1.424,0 2.601,-0.33 3.509,-1.012 0.908,-0.681 1.486,-1.527 1.755,-2.559 0.269,-1.012 0.392,-2.725 0.392,-5.12 V -27.417 H 2.498 L 2.477,-9.125 c 0,1.879 -0.062,3.035 -0.186,3.448 -0.124,0.412 -0.475,0.619 -1.032,0.619 -0.599,0 -0.97,-0.247 -1.114,-0.722 C 0,-6.255 -0.083,-7.515 -0.083,-9.579 l 0.021,-17.838 H -8.403 V -0.02 Z" />
        </g><g
         transform="matrix(0.38784848,0,0,-0.38784848,632.34103,58.245294)"
         id="g1186">
          <path
   inkscape:connector-curvature="0"
   id="path1188"
   style="fill:#ffffff;fill-opacity:1;fill-rule:nonzero;stroke:none"
   d="m 0,0 c 0,2.002 -0.269,2.539 -1.28,2.539 -0.496,0 -0.929,-0.144 -1.28,-0.455 -0.352,-0.309 -0.558,-2.022 -0.62,-5.181 v -6.565 c 0.062,-3.613 0.268,-5.595 0.62,-5.945 0.351,-0.351 0.743,-0.538 1.218,-0.538 0.537,0 0.887,0.187 1.073,0.579 0.186,0.392 0.269,1.361 0.269,2.889 z M 8.341,12.923 V -20.501 H 0 c -0.476,0.765 -1.218,0.93 -2.229,0.475 -1.012,-0.433 -2.003,-0.661 -2.974,-0.661 -2.188,-0.041 -3.674,0.682 -4.48,2.168 -0.805,1.508 -1.197,3.262 -1.197,5.286 v 12.82 c 0,2.105 0.434,3.86 1.321,5.244 0.888,1.403 2.333,2.25 4.377,2.56 1.032,0 1.981,-0.186 2.828,-0.558 L -0.021,5.842 0,12.923 Z" />
        </g><g
         transform="matrix(0.38784848,0,0,-0.38784848,647.23227,53.232973)"
         id="g1190">
          <path
   inkscape:connector-curvature="0"
   id="path1192"
   style="fill:#ffffff;fill-opacity:1;fill-rule:nonzero;stroke:none"
   d="m 0,0 v -33.424 h -7.598 l 0.02,20.459 -3.054,-20.459 h -5.389 l -3.2,20.459 v -20.459 h -7.597 V 0 l 10.715,-0.021 2.808,-14.306 2.477,14.306 z" />
        </g><g
         transform="matrix(0.38784848,0,0,-0.38784848,651.81808,56.42609)"
         id="g1194">
          <path
   inkscape:connector-curvature="0"
   id="path1196"
   style="fill:#ffffff;fill-opacity:1;fill-rule:nonzero;stroke:none"
   d="M 0,0 -0.001,-25.191 H -8.59 V 0 Z M 0,8.233 V 1.502 h -8.59 v 6.731 z" />
        </g><g
         transform="matrix(0.38784848,0,0,-0.38784848,659.95968,53.224828)"
         id="g1198">
          <path
   inkscape:connector-curvature="0"
   id="path1200"
   style="fill:#ffffff;fill-opacity:1;fill-rule:nonzero;stroke:none"
   d="M 0,0 0.104,-6.751 -5.409,-6.71 V -33.445 H -14.1 V -6.71 l -5.389,-0.041 V 0 Z" />
        </g><g
         transform="matrix(0.38784848,0,0,-0.38784848,642.96687,21.374284)"
         id="g1230">
          <path
   inkscape:connector-curvature="0"
   id="path1232"
   style="fill:#ffffff;fill-opacity:1;fill-rule:nonzero;stroke:none"
   d="m 0,0 v 0 c 0,-22.676 -18.447,-41.124 -41.123,-41.124 -22.676,0 -41.123,18.448 -41.123,41.124 0,11.337 4.612,21.618 12.058,29.064 l -10.03,10.031 C -90.234,29.079 -96.438,15.25 -96.438,0 c 0,-30.501 24.814,-55.315 55.315,-55.315 30.501,0 55.315,24.814 55.315,55.315 z" />
        </g><g
         transform="matrix(0.38784848,0,0,-0.38784848,640.5754,12.986712)"
         id="g1234">
          <path
   inkscape:connector-curvature="0"
   id="path1236"
   style="fill:#ffffff;fill-opacity:1;fill-rule:nonzero;stroke:none"
   d="M 0,0 12.063,7.463 C 3.048,21.983 -12.5,32.025 -30.442,33.484 V 28.457 -6.818 c -1.429,0.435 -2.944,0.673 -4.516,0.673 -8.55,0 -15.481,-6.931 -15.481,-15.481 0,-8.55 6.931,-15.482 15.481,-15.482 8.551,0 15.482,6.932 15.482,15.482 v 18.762 c 2.042,-1.687 3.818,-3.688 5.222,-5.954 l 9.884,6.115 c -3.622,5.847 -8.876,10.552 -15.106,13.526 v 5.618 C -11.382,13.142 -4.563,7.349 0,0" />
        </g></g></g><g
     id="knobs-group"
     inkscape:groupmode="layer"
     inkscape:label="Knobs Group"
     style="display:inline"><g
       id="g178"
       inkscape:label="Volume"
       transform="matrix(4.3,0,0,4.3,36.41292,27.5)"><g
         id="g169"
         inkscape:groupmode="layer"
         inkscape:label="Secondary color"><circle
           style="fill:#2e3436;stroke:#2e3436;stroke-width:0"
           id="id_s_Volume"
           cx="0"
           cy="0"
           r="0" /></g><g
         id="g172"
         inkscape:groupmode="layer"
         inkscape:label="Main color"><circle
           style="fill:#e3e28c;stroke:#2e3436;stroke-width:1"
           id="id_Volume"
           cx="0"
           cy="0"
           r="4.5" /></g><g
         id="g176"
         inkscape:groupmode="layer"
         inkscape:label="Tick"><path
           id="path174"
           style="fill:none;stroke:#2e3436;stroke-width:1"
           transform="rotate(135)"
           d="M 4.2,0 H 0"
           inkscape:connector-curvature="0" /></g></g></g></svg>
